<?xml version="1.0" encoding="UTF-8"?>
<svg id="Layer_2" data-name="Layer 2" xmlns="http://www.w3.org/2000/svg" width="599.97172" height="122.8263" viewBox="0 0 599.97172 122.8263">
  <defs>
    <style>
      .cls-1 {
        fill: #0c203d;
      }

      .cls-2 {
        fill: #85c446;
      }
    </style>
  </defs>
  <g id="layer">
    <path class="cls-1" d="M52.05884,28.69998c-4.9,0-8.8,3.79999-8.8,8.39999s4,8.39999,8.8,8.39999c4.9,0,8.8-3.79999,8.8-8.39999.1-4.69998-3.9-8.39999-8.8-8.39999"/>
    <path class="cls-1" d="M26.25884,75.09998c2.9-1.39999,3.7-5.70001,1.7-9.70001-1.9-3.89999-5.8-6-8.7-4.60001s-3.7,5.70001-1.7,9.70001c1.9,3.90002,5.8,6.00003,8.7,4.60001"/>
    <path class="cls-1" d="M35.85885,62.29999c4.6,0,8.4-4,8.4-8.89999s-3.7-8.89999-8.4-8.89999c-4.6,0-8.4,4-8.4,8.89999s3.8,8.89999,8.4,8.89999"/>
    <path class="cls-1" d="M11.75884,72.19998c-1.5,1-1,4.20001,1,7.29999,2,3,4.9,4.70001,6.3,3.70001,1.5-1,1-4.20001-1-7.29999-2-3.10001-4.8-4.70001-6.3-3.70001"/>
    <path class="cls-1" d="M77.85885,75.09998c2.9,1.39999,6.8-.70001,8.7-4.60001,1.9-3.89999,1.1-8.29999-1.7-9.70001-2.9-1.39999-6.8.70001-8.7,4.60001-2.00001,3.90002-1.2,8.30002,1.7,9.70001"/>
    <path class="cls-1" d="M68.15884,62.29999c4.6,0,8.4-4,8.4-8.89999s-3.8-8.89999-8.4-8.89999-8.4,4-8.4,8.89999,3.8,8.89999,8.4,8.89999"/>
    <path class="cls-1" d="M91.25885,79.39999c2-3,2.5-6.29999,1-7.29999s-4.3.70001-6.3,3.70001-2.5,6.29999-1,7.29999c1.4.99997,4.2-.70001,6.3-3.70001"/>
    <path class="cls-2" d="M97.15884,77.09998c-.6-.29999-.3-2.60001.7-5.20001s2.4-4.70001,3-4.29999c1.60001,1.10001-2.8,10-3.7,9.5"/>
    <path class="cls-2" d="M6.55885,26.69998c-.4.10001-3.3,6.70001-3.2,6.79999.1.10001,1.1-1.79999,1.8-3.20001.8-1.59998,1.6-3.69998,1.4-3.59998"/>
    <path class="cls-2" d="M97.45885,26.69998c.4.10001,3.3,6.70001,3.2,6.79999-.1.10001-1.1-1.79999-1.8-3.20001-.7-1.59998-1.59999-3.69998-1.39999-3.59998"/>
    <path class="cls-2" d="M37.95885,2.5c-2,.60001-3.7.89999-3.8.70001,0-.29999,6.8-2.39999,7.4-2,.1-.00003-1.6.69998-3.6,1.29999"/>
    <path class="cls-2" d="M13.95885,17c.3.20001-.7,2-2.2,3.89999s-3,3.39999-3.2,3.10001c-.5-.70001,4.6-7.5,5.4-7"/>
    <path class="cls-2" d="M1.85884,65.89999c-.1.60001-2.1-8.70001-1.6-8.29999.4.39999,1,2.20001,1.3,4.29999.4,1.69998.4,3.19998.3,4"/>
    <path class="cls-2" d="M1.55885,45.19998c.4-2.5.4-4.5,0-4.70001-.9-.29999-1.8,9-1.5,9.10001.4.10001,1.1-1.89999,1.5-4.39999"/>
    <path class="cls-2" d="M17.65885,36.39999c-1.9,3.89999-1.1,8.29999,1.7,9.70001,2.9,1.39999,6.8-.70001,8.7-4.60001s1.1-8.29999-1.7-9.70001c-2.9-1.39999-6.7.60001-8.7,4.60001"/>
    <path class="cls-2" d="M5.45885,48.29999c1.3.29999,3-2.20001,3.7-5.5.8-3.29999.3-6.20001-1-6.5s-3,2.20001-3.7,5.5-.3,6.20001,1,6.5"/>
    <path class="cls-2" d="M52.05884,77.69998c4.9,0,8.8-3.70001,8.8-8.39999,0-4.60001-4-8.39999-8.8-8.39999-4.9,0-8.8,3.70001-8.8,8.39999s4,8.39999,8.8,8.39999"/>
    <path class="cls-2" d="M9.25884,64.29999c-.8-3.29999-2.5-5.70001-3.8-5.39999-1.3.29999-1.7,3.29999-.8,6.60001.8,3.29999,2.5,5.70001,3.8,5.39999,1.2-.39999,1.6-3.30002.8-6.60001"/>
    <path class="cls-2" d="M8.15885,53.5c0,4,1.9,7.20001,4.2,7.20001s4.2-3.20001,4.2-7.20001-1.9-7.20001-4.2-7.20001-4.2,3.20001-4.2,7.20001"/>
    <path class="cls-2" d="M2.35884,48.39999c-.8,0-1.5,2.39999-1.5,5.39999s.7,5.39999,1.5,5.39999,1.5-2.39999,1.5-5.39999-.7-5.39999-1.5-5.39999"/>
    <path class="cls-2" d="M30.65885,28c1.5,2.89999,5.9,3.5,9.8,1.5,3.9-2,5.8-6,4.3-8.89999s-5.9-3.5-9.8-1.5c-3.90001,1.99997-5.8,5.99997-4.3,8.89999"/>
    <path class="cls-2" d="M26.05884,14.39999c-3,2.10001-4.7,4.89999-3.7,6.29999s4.2.89999,7.2-1.10001c3-2.10001,4.7-4.89999,3.7-6.29999s-4.2-.89999-7.2,1.10001"/>
    <path class="cls-2" d="M12.95885,27.39999c-2,3-2.5,6.29999-1,7.29999s4.3-.70001,6.3-3.70001,2.4-6.29999,1-7.29999c-1.5-1-4.3.60001-6.3,3.70001"/>
    <path class="cls-2" d="M3.05885,39.59998c.6.20001,1.9-1.70001,3-4.29999,1-2.60001,1.3-4.89999.7-5.20001-.6-.20001-1.9,1.70001-3,4.29999-1,2.60004-1.3,5.00003-.7,5.20001"/>
    <path class="cls-2" d="M44.25885,85.89999c1.5-2.89999-.4-6.89999-4.3-8.89999-3.9-2-8.3-1.39999-9.8,1.5s.4,6.89999,4.3,8.89999c3.9,2.10001,8.3,1.39999,9.8-1.5"/>
    <path class="cls-2" d="M6.85884,77.09998c.6-.29999.3-2.60001-.7-5.20001s-2.4-4.70001-3-4.29999c-1.6,1.10001,2.8,10,3.7,9.5"/>
    <path class="cls-2" d="M13.55884,24.5c1.8-2.39999,2.7-4.70001,2-5.20001s-2.6,1-4.4,3.39999c-1.8,2.39999-2.7,4.70001-2,5.20001s2.7-1.10001,4.4-3.39999"/>
    <path class="cls-2" d="M44.85885,13.69998c0,2.29999,3.2,4.20001,7.2,4.20001s7.2-1.89999,7.2-4.20001-3.2-4.20001-7.2-4.20001c-3.9.00003-7.2,1.90002-7.2,4.20001"/>
    <path class="cls-2" d="M29.25884,87c-3-2.10001-6.2-2.60001-7.2-1.10001-1,1.39999.7,4.29999,3.7,6.29999,3,2.10001,6.3,2.60001,7.2,1.10001,1-1.39999-.7-4.29999-3.7-6.29999"/>
    <path class="cls-2" d="M9.05885,78.69998c-.7.5.3,2.79999,2,5.20001,1.8,2.39999,3.8,3.89999,4.4,3.39999.7-.5-.2-2.79999-2-5.20001-1.8-2.39999-3.8-3.89999-4.4-3.39999"/>
    <path class="cls-2" d="M59.35885,92.69998c0-2.29999-3.2-4.20001-7.2-4.20001s-7.2,1.89999-7.2,4.20001,3.2,4.20001,7.2,4.20001c3.89999,0,7.2-1.80002,7.2-4.20001"/>
    <path class="cls-2" d="M40.35885,5.89999c-3.3.79999-5.7,2.5-5.4,3.70001.3,1.29999,3.2,1.70001,6.5.89999,3.3-.79999,5.7-2.5,5.4-3.70001-.3-1.29999-3.2-1.70001-6.5-.89999"/>
    <path class="cls-2" d="M21.35885,12.39999c-2.4,1.79999-3.9,3.79999-3.4,4.39999s2.8-.29999,5.2-2.10001c2.4-1.79999,3.9-3.79999,3.4-4.39999-.5-.60001-2.9.29999-5.2,2.10001"/>
    <path class="cls-2" d="M40.75884,95.69998c-3.3-.79999-6.2-.39999-6.5.89999s2.1,3,5.4,3.70001c3.3.79999,6.2.39999,6.5-.89999.3-1.20001-2.1-2.89999-5.4-3.70001"/>
    <path class="cls-2" d="M26.35885,96.09998c.5-.60001-1-2.60001-3.4-4.39999s-4.7-2.70001-5.2-2.10001c-.4.5.4,1.79999,1.9,3.20001,1.2.89999,2.4,1.79999,3.7,2.70001,1.5.79999,2.7,1,3,.59998"/>
    <path class="cls-2" d="M46.75885,3.69998c0,.79999,2.4,1.39999,5.3,1.39999,3,0,5.4-.60001,5.4-1.39999s-2.4-1.39999-5.4-1.39999c-2.90001,0-5.3.60001-5.3,1.39999"/>
    <path class="cls-2" d="M28.65885,8.19998c.2.60001,2.6.29999,5.2-.70001,2.6-1,4.6-2.39999,4.3-3-.2-.60001-2.6-.29999-5.2.70001-2.6,1-4.5,2.39999-4.3,3"/>
    <path class="cls-2" d="M19.85885,12.89999c1.9-1.5,3.3-3,3.1-3.29999s-1.9.70001-3.8,2.29999c-1.9,1.5-3.3,3-3.1,3.29999.2.20001,1.9-.79999,3.8-2.29999"/>
    <path class="cls-2" d="M57.45885,102.59998c0-.79999-2.4-1.39999-5.4-1.39999s-5.3.60001-5.3,1.39999,2.4,1.39999,5.3,1.39999h1.1c2.5-.09998,4.3-.69998,4.3-1.39999"/>
    <path class="cls-2" d="M102.15884,66c.1.60001,2.1-8.70001,1.6-8.29999-.4.39999-1,2.20001-1.3,4.29999-.3,1.69998-.39999,3.09998-.3,4"/>
    <path class="cls-2" d="M43.75884,2.89999c2.5-.39999,4.5-1,4.5-1.39999-.1-.39999-2.2-.39999-4.7-.10001-2.5.39999-4.5,1-4.5,1.39999.1.5,2.2.5,4.7.10001"/>
    <path class="cls-2" d="M28.85885,6.69998c2.1-1,3.7-2.10001,3.6-2.39999-.1-.29999-2,.39999-4.1,1.39999-2.1,1.10001-3.7,2.10001-3.6,2.39999.2.20001,2-.39999,4.1-1.39999"/>
    <path class="cls-2" d="M48.05884.39999c0,.29999,1.8.5,4.1.5,2.2,0,4.1-.20001,4.1-.5,0-.20001-.9-.29999-2.3-.39999h-3.49999c-1.4.09998-2.4.19998-2.4.39999"/>
    <path class="cls-2" d="M77.65884,31.79999c-2.9,1.39999-3.7,5.70001-1.7,9.70001,1.9,3.89999,5.8,6,8.7,4.60001,2.9-1.39999,3.7-5.70001,1.7-9.70001-1.89999-4-5.8-6-8.7-4.60001"/>
    <path class="cls-2" d="M95.85885,36.29999c-1.3.29999-1.7,3.20001-1,6.5.8,3.29999,2.4,5.79999,3.7,5.5,1.3-.29999,1.7-3.20001,1-6.5-.8-3.29999-2.4-5.79999-3.7-5.5"/>
    <path class="cls-2" d="M98.65884,58.89999c-1.3-.29999-3,2.10001-3.8,5.39999s-.4,6.20001.9,6.60001c1.3.29999,3-2.10001,3.8-5.39999.7-3.30002.3-6.30002-.9-6.60001"/>
    <path class="cls-2" d="M91.65884,60.69998c2.3,0,4.2-3.20001,4.2-7.20001s-1.9-7.20001-4.2-7.20001-4.2,3.20001-4.2,7.20001,1.9,7.20001,4.2,7.20001"/>
    <path class="cls-2" d="M101.65884,48.39999c-.8,0-1.5,2.39999-1.5,5.39999s.6,5.39999,1.5,5.39999c.8,0,1.5-2.39999,1.5-5.39999s-.7-5.39999-1.5-5.39999"/>
    <path class="cls-2" d="M59.35885,20.59998c-1.5,2.89999.4,6.89999,4.3,8.89999s8.3,1.39999,9.8-1.5-.4-6.89999-4.3-8.89999c-4.00001-2.09998-8.3-1.39999-9.8,1.5"/>
    <path class="cls-2" d="M70.75885,13.29999c-1,1.39999.7,4.29999,3.7,6.29999,3,2.10001,6.3,2.60001,7.2,1.10001,1-1.39999-.7-4.29999-3.7-6.29999s-6.2-2.5-7.2-1.10001"/>
    <path class="cls-2" d="M92.05884,34.59998c1.5-1,1-4.20001-1-7.29999-2-3-4.8-4.70001-6.3-3.70001s-1,4.20001,1,7.29999c2.00001,3.00003,4.9,4.70001,6.3,3.70001"/>
    <path class="cls-2" d="M101.05884,39.59998c.6-.20001.3-2.60001-.7-5.20001s-2.3-4.60001-3-4.29999c-.6.20001-.3,2.60001.7,5.20001s2.3,4.5,3,4.29999"/>
    <path class="cls-2" d="M73.85885,78.5c-1.5-2.89999-5.9-3.5-9.8-1.5s-5.8,6-4.3,8.89999,5.9,3.5,9.8,1.5,5.8-6,4.3-8.89999"/>
    <path class="cls-2" d="M94.85885,27.89999c.7-.5-.3-2.79999-2-5.20001-1.8-2.39999-3.8-3.89999-4.4-3.39999-.7.5.3,2.79999,2,5.20001,1.8,2.29999,3.8,3.89999,4.4,3.39999"/>
    <path class="cls-2" d="M74.75885,87c-3,2.10001-4.7,4.89999-3.7,6.29999s4.2.89999,7.2-1.10001c3-2.10001,4.7-4.89999,3.7-6.29999-.9-1.5-4.2-1-7.2,1.10001"/>
    <path class="cls-2" d="M90.65884,82.09998c-1.8,2.39999-2.7,4.70001-2,5.20001s2.6-1,4.4-3.39999,2.7-4.70001,2-5.20001-2.7,1-4.4,3.39999"/>
    <path class="cls-2" d="M90.05884,17c-.3.20001.7,2,2.2,3.89999s3,3.39999,3.2,3.10001c.50001-.70001-4.49999-7.5-5.39999-7"/>
    <path class="cls-2" d="M63.65884,5.89999c-3.3-.79999-6.2-.39999-6.5.89999s2.1,3,5.4,3.70001c3.3.79999,6.2.39999,6.5-.89999.4-1.20001-2.1-2.90002-5.4-3.70001"/>
    <path class="cls-2" d="M82.75885,12.39999c-2.4-1.79999-4.7-2.70001-5.2-2.10001s1,2.60001,3.4,4.39999,4.7,2.70001,5.2,2.10001c.39999-.60001-1.10001-2.60001-3.4-4.39999"/>
    <path class="cls-2" d="M63.25885,95.69998c-3.3.79999-5.7,2.5-5.4,3.70001.3,1.29999,3.2,1.70001,6.5.89999,3.3-.79999,5.7-2.5,5.4-3.70001-.3-1.19998-3.2-1.59998-6.5-.89999"/>
    <path class="cls-2" d="M86.25885,89.59998c-.5-.60001-2.8.29999-5.2,2.10001-2.4,1.79999-3.9,3.79999-3.4,4.39999.3.39999,1.5.10001,2.9-.60001,1.3-.79999,2.5-1.70001,3.7-2.70001,1.5-1.39996,2.39999-2.69998,2-3.19998"/>
    <path class="cls-2" d="M70.15884,7.39999c2.6,1,5,1.39999,5.2.70001.2-.60001-1.7-2-4.3-3s-5-1.39999-5.2-.70001c-.3.69998,1.7,2,4.3,3"/>
    <path class="cls-2" d="M84.15884,12.89999c1.9,1.5,3.6,2.5,3.9,2.29999.2-.29999-1.1-1.70001-3.1-3.29999-1.9-1.5-3.6-2.5-3.9-2.29999-.1.29999,1.2,1.79999,3.1,3.29999"/>
    <path class="cls-2" d="M70.85885,98.79999c-2.6,1.10001-4.6,2.39999-4.3,3l9.5-3.79999c-.3-.60001-2.6-.20001-5.2.79999"/>
    <path class="cls-2" d="M70.85885,98.79999c-2.6,1.10001-4.7,2.5-4.3,3,.4.39999,9.4-3.39999,9.5-3.79999.1-.60001-2.6-.30002-5.2.79999"/>
    <path class="cls-2" d="M60.25885,2.89999c2.5.39999,4.6.29999,4.7-.10001s-1.9-1-4.5-1.39999c-2.5-.39999-4.6-.29999-4.7.10001,0,.39999,2,1.09998,4.5,1.39999"/>
    <path class="cls-2" d="M75.25885,6.69998c2.1,1.10001,3.9,1.70001,4.1,1.39999.1-.29999-1.5-1.29999-3.6-2.39999s-3.9-1.70001-4.1-1.39999c-.2.20001,1.39999,1.29999,3.6,2.39999"/>
    <path class="cls-2" d="M66.15884,2.5c2,.60001,3.7.89999,3.8.70001,0-.29999-6.8-2.39999-7.4-2-.2-.00003,1.5.69998,3.6,1.29999"/>
    <path class="cls-2" d="M102.45885,45.19998c-.4-2.5-.4-4.5,0-4.70001.9-.29999,1.8,9,1.5,9.10001-.4.10001-1.1-1.89999-1.5-4.39999"/>
    <path class="cls-2" d="M33.25884,98.79999c2.6,1.10001,4.7,2.5,4.3,3-.4.39999-9.4-3.39999-9.5-3.79999-.2-.60001,2.5-.20001,5.2.79999"/>
    <path class="cls-2" d="M61.75885,102.69998c2.1-.39999,3.8-.60001,3.8-.39999,0,.29999-7,1.89999-7.5,1.5-.10001-.10001,1.7-.60001,3.7-1.10001"/>
    <path class="cls-2" d="M42.75884,102.69998c-2.1-.39999-3.8-.60001-3.8-.39999,0,.29999,7,1.89999,7.5,1.5.1-.10001-1.6-.60001-3.7-1.10001"/>
    <path class="cls-1" d="M589.95885,39.39999c6-2,11.59998,3.60001,9.59998,9.60001-.70001,2.20001-2.5,4-4.70001,4.70001-6,2-11.59998-3.60001-9.59998-9.60001.79999-2.20001,2.5-4.00003,4.70001-4.70001M590.85887,52.59998c4.59998,1.10001,8.70001-2.89999,7.59998-7.60001-.5-2.20001-2.29999-4-4.5-4.5-4.59998-1.10001-8.70001,2.89999-7.59998,7.60001.59998,2.20001,2.39996,4,4.5,4.5M589.55882,42.19998h3.29999c2.09998,0,3,.89999,3,2.60001,0,1.5-.90002,2.20001-2.09998,2.39999l2.29999,3.70001h-1.70001l-2.09998-3.5h-1.20001v3.5h-1.59998v-8.70001h.09998ZM591.15886,46h1.20001c1,0,2.09998-.10001,2.09998-1.20001,0-1.20001-1.09998-1.20001-2.09998-1.20001h-1.20001v2.40002Z"/>
    <path class="cls-1" d="M165.65884,11.09998l38.5,83.70001c.39999.79999-.2,1.70001-1.10001,1.70001h-8.8c-.5,0-.89999-.29999-1.10001-.70001l-8.60001-18.70001c-.2-.39999-.60001-.70001-1.10001-.70001h-38c-.5,0-.89999.29999-1.10001.70001l-8.60001,18.70001c-.2.39999-.60001.70001-1.10001.70001h-8.7c-.89999,0-1.5-.89999-1.10001-1.70001L163.35879,11.09998c.50005-.89999,1.80005-.89999,2.30005,0M179.05885,65l-13.39999-29.29999c-.39999-.89999-1.7-.89999-2.2,0l-13.50002,29.29999c-.39999.79999.2,1.70001,1.10001,1.70001h26.89999c.89999-.00003,1.5-.90002,1.10001-1.70001"/>
    <path class="cls-1" d="M214.95885,19.79999l8-4c.8-.39999,1.7.20001,1.7,1.10001v78.39999c0,.70001-.5,1.20001-1.2,1.20001h-8c-.7,0-1.2-.5-1.2-1.20001V20.89999c.09999-.5.3-.89999.7-1.10001"/>
    <path class="cls-1" d="M238.95885,8.69998l8-4c.79999-.39999,1.70001.20001,1.70001,1.10001v89.5c0,.70001-.5,1.20001-1.20001,1.20001h-8c-.70001,0-1.20001-.5-1.20001-1.20001V9.69998c.10001-.39999.30002-.79999.70001-1"/>
    <path class="cls-1" d="M290.55885,55c-.5.39999-1.20001.29999-1.60001-.10001-2.39999-2.60001-5.79999-4.60001-10.5-4.60001-4.79999,0-9.10001,2.20001-9.10001,6.10001,0,6.60001,9.29999,7.5,13.89999,8.5,9,2.20001,15.89999,5.60001,15.89999,15.89999,0,12.29999-11.29999,17.10001-22.10001,17.10001-8.60001,0-15.10001-2.10001-20.29999-8.70001-.39999-.5-.29999-1.29999.20001-1.70001l6.10001-5c.5-.39999,1.20001-.39999,1.60001.10001,3.20001,3,6.89999,5.70001,12.5,5.70001,5.29999,0,11-2.20001,11-6.89999,0-6.20001-8.60001-7.39999-13.10001-8.39999-8.89999-2.20001-16.70001-5.10001-16.70001-15.5,0-11.39999,10.5-16.79999,20.70001-16.79999,6.89999,0,14,2.29999,18,8,.39999.5.20001,1.20001-.29999,1.60001l-6.20001,4.69998Z"/>
    <path class="cls-1" d="M348.65886,55.69998c-.5.39999-1.20001.39999-1.70001,0-3.60001-3.5-7.39999-5.29999-12.79999-5.29999-11.29999,0-17,9.10001-17,19.29999s6.89999,18.5,17.60001,18.5c5.29999,0,9.10001-1.79999,12.39999-5.20001.5-.5,1.29999-.5,1.70001,0l5.60001,5.60001c.5.5.5,1.20001,0,1.70001-5.20001,5.20001-12,7.39999-19.29999,7.5-15.79999.20001-29.10001-12.60001-29.10001-28.39999,0-16.79999,11.5-28.79999,28.5-28.79999,7.5,0,14.70001,2.5,20.10001,7.70001.5.5.39999,1.29999-.10001,1.70001l-5.90002,5.69995Z"/>
    <path class="cls-1" d="M365.95885,42h8c.70001,0,1.20001.5,1.20001,1.20001v7.20001h.20001c2.70001-5.79999,9.5-9.79999,16.29999-9.79999,1.20001,0,2.5.10001,3.60001.39999.60001.10001,1,.60001.89999,1.20001l-.39999,8.79999c0,.70001-.70001,1.29999-1.39999,1.10001-1.29999-.29999-2.5-.5-3.70001-.5-10.10001,0-15.70001,5.5-15.70001,17.5v26.20001c0,.70001-.5,1.20001-1.20001,1.20001h-8c-.70001,0-1.20001-.5-1.20001-1.20001v-52.10001c.20001-.60007.80002-1.20004,1.40002-1.20004"/>
    <path class="cls-1" d="M409.15886,15.29999c6-2,11.70001,3.70001,9.70001,9.70001-.70001,2.20001-2.5,3.89999-4.70001,4.70001-6,2-11.70001-3.70001-9.70001-9.70001.70001-2.20001,2.5-4,4.70001-4.70001M407.65886,42h8c.70001,0,1.20001.5,1.20001,1.20001v52.10001c0,.70001-.5,1.20001-1.20001,1.20001h-8c-.70001,0-1.20001-.5-1.20001-1.20001v-52.10001c0-.60004.5-1.20001,1.20001-1.20001"/>
    <path class="cls-1" d="M430.75883,42h8c.70001,0,1.20001.5,1.20001,1.20001v6.60001h.20001c4-5.89999,11.60001-9.20001,19-9.20001,16.89999,0,27.70001,12.5,27.70001,28.70001,0,16.29999-10.89999,28.70001-27.70001,28.70001-7.79999,0-15.29999-3.60001-19-9.20001h-.20001v28.89999c0,.5-.29999.89999-.70001,1.10001l-8,3.89999c-.79999.39999-1.70001-.20001-1.70001-1.10001V43.20001c.00003-.70001.50003-1.20001,1.20001-1.20001M439.95885,67.59998c-.70001,12,6.29999,20.79999,18,20.70001,9.5-.10001,17.20001-7.79999,17.79999-17.29999.70001-12-6.39999-20.70001-18-20.70001-9.5,0-17.19998,7.79999-17.79999,17.29999"/>
    <path class="cls-1" d="M567.95885,55c-.5.39999-1.20001.29999-1.59998-.10001-2.40002-2.60001-5.79999-4.60001-10.5-4.60001-4.79999,0-9.09998,2.20001-9.09998,6.10001,0,6.60001,9.29999,7.5,13.90002,8.5,9,2.20001,15.90002,5.60001,15.90002,15.89999,0,12.29999-11.29999,17.10001-22.09998,17.10001-8.59998,0-15.09998-2.10001-20.29999-8.70001-.40002-.5-.29999-1.29999.20001-1.70001l6.09998-5c.5-.39999,1.20001-.39999,1.59998.10001,3.20001,3,6.90002,5.70001,12.5,5.70001,5.29999,0,11-2.20001,11-6.89999,0-6.20001-8.59998-7.39999-13.09998-8.39999-8.90002-2.20001-16.70001-5.10001-16.70001-15.5,0-11.39999,10.5-16.79999,20.70001-16.79999,6.90002,0,14,2.29999,18,8,.40002.5.20001,1.20001-.29999,1.60001l-6.20013,4.69998Z"/>
    <path class="cls-1" d="M510.35887,75.69998v-22.5c0-.70001.5-1.20001,1.20001-1.20001h9.20001c.40002,0,.90002-.29999,1.09998-.70001l4-8c.40002-.79999-.20001-1.70001-1.09998-1.70001h-13.20001c-.70001,0-1.20001-.5-1.20001-1.20001v-13.79999c0-.89999-.90002-1.5-1.70001-1.10001l-8,4c-.40002.20001-.70001.60001-.70001,1.10001v9.79999c0,.70001-.5,1.20001-1.20001,1.20001h-5.59998c-.70001,0-1.20001.5-1.20001,1.20001v8c0,.70001.5,1.20001,1.20001,1.20001h5.59998c.70001,0,1.20001.5,1.20001,1.20001v26.20001c0,8.70001.20001,18.5,16.20001,18.5,1.90002,0,6-.39999,8.59998-1.5.5-.20001.79999-.60001.79999-1.10001v-6.79999c0-.79999-.79999-1.39999-1.59998-1.10001-1.79999.70001-3.90002.89999-5.79999.89999-7.79999,0-7.79999-6.5-7.79999-12.60001"/>
  </g>
</svg>