<?xml version="1.0" encoding="utf-8"?>
<!-- Generator: Adobe Illustrator 19.2.1, SVG Export Plug-In . SVG Version: 6.00 Build 0)  -->
<svg version="1.1" id="layer" xmlns="http://www.w3.org/2000/svg" xmlns:xlink="http://www.w3.org/1999/xlink" x="0px" y="0px"
	 viewBox="0 0 652 652" style="enable-background:new 0 0 652 652;" xml:space="preserve">
<style type="text/css">
	.st0{fill:#0C203D;}
	.st1{fill:#85C446;}
</style>
<path class="st0" d="M72.1,289.4c-4.9,0-8.8,3.8-8.8,8.4c0,4.6,4,8.4,8.8,8.4c4.9,0,8.8-3.8,8.8-8.4C81,293.1,77,289.4,72.1,289.4"
	/>
<path class="st0" d="M46.3,335.8c2.9-1.4,3.7-5.7,1.7-9.7c-1.9-3.9-5.8-6-8.7-4.6c-2.9,1.4-3.7,5.7-1.7,9.7
	C39.5,335.1,43.4,337.2,46.3,335.8"/>
<path class="st0" d="M55.9,323c4.6,0,8.4-4,8.4-8.9s-3.7-8.9-8.4-8.9c-4.6,0-8.4,4-8.4,8.9S51.3,323,55.9,323"/>
<path class="st0" d="M31.8,332.9c-1.5,1-1,4.2,1,7.3c2,3,4.9,4.7,6.3,3.7c1.5-1,1-4.2-1-7.3C36.1,333.5,33.3,331.9,31.8,332.9"/>
<path class="st0" d="M97.9,335.8c2.9,1.4,6.8-0.7,8.7-4.6c1.9-3.9,1.1-8.3-1.7-9.7c-2.9-1.4-6.8,0.7-8.7,4.6
	C94.2,330,95,334.4,97.9,335.8"/>
<path class="st0" d="M88.2,323c4.6,0,8.4-4,8.4-8.9s-3.8-8.9-8.4-8.9c-4.6,0-8.4,4-8.4,8.9S83.6,323,88.2,323"/>
<path class="st0" d="M111.3,340.1c2-3,2.5-6.3,1-7.3c-1.5-1-4.3,0.7-6.3,3.7c-2,3-2.5,6.3-1,7.3
	C106.4,344.8,109.2,343.1,111.3,340.1"/>
<path class="st1" d="M117.2,337.8c-0.6-0.3-0.3-2.6,0.7-5.2c1-2.6,2.4-4.7,3-4.3C122.5,329.4,118.1,338.3,117.2,337.8"/>
<path class="st1" d="M26.6,287.4c-0.4,0.1-3.3,6.7-3.2,6.8c0.1,0.1,1.1-1.8,1.8-3.2C26,289.4,26.8,287.3,26.6,287.4"/>
<path class="st1" d="M117.5,287.4c0.4,0.1,3.3,6.7,3.2,6.8c-0.1,0.1-1.1-1.8-1.8-3.2C118.2,289.4,117.3,287.3,117.5,287.4"/>
<path class="st1" d="M58,263.2c-2,0.6-3.7,0.9-3.8,0.7c0-0.3,6.8-2.4,7.4-2C61.7,261.9,60,262.6,58,263.2"/>
<path class="st1" d="M34,277.7c0.3,0.2-0.7,2-2.2,3.9c-1.5,1.9-3,3.4-3.2,3.1C28.1,284,33.2,277.2,34,277.7"/>
<path class="st1" d="M21.9,326.6c-0.1,0.6-2.1-8.7-1.6-8.3c0.4,0.4,1,2.2,1.3,4.3C22,324.3,22,325.8,21.9,326.6"/>
<polygon class="st1" points="72.1,260.7 72,260.7 72.1,260.7 "/>
<path class="st1" d="M21.6,305.9c0.4-2.5,0.4-4.5,0-4.7c-0.9-0.3-1.8,9-1.5,9.1C20.5,310.4,21.2,308.4,21.6,305.9"/>
<path class="st1" d="M37.7,297.1c-1.9,3.9-1.1,8.3,1.7,9.7c2.9,1.4,6.8-0.7,8.7-4.6c1.9-3.9,1.1-8.3-1.7-9.7
	C43.5,291.1,39.7,293.1,37.7,297.1"/>
<path class="st1" d="M25.5,309c1.3,0.3,3-2.2,3.7-5.5c0.8-3.3,0.3-6.2-1-6.5c-1.3-0.3-3,2.2-3.7,5.5C23.8,305.8,24.2,308.7,25.5,309
	"/>
<path class="st1" d="M72.1,338.4c4.9,0,8.8-3.7,8.8-8.4c0-4.6-4-8.4-8.8-8.4c-4.9,0-8.8,3.7-8.8,8.4
	C63.3,334.7,67.3,338.4,72.1,338.4"/>
<path class="st1" d="M29.3,325c-0.8-3.3-2.5-5.7-3.8-5.4c-1.3,0.3-1.7,3.3-0.8,6.6c0.8,3.3,2.5,5.7,3.8,5.4
	C29.7,331.2,30.1,328.3,29.3,325"/>
<path class="st1" d="M28.2,314.2c0,4,1.9,7.2,4.2,7.2c2.3,0,4.2-3.2,4.2-7.2c0-4-1.9-7.2-4.2-7.2C30.1,307,28.2,310.2,28.2,314.2"/>
<path class="st1" d="M22.4,309.1c-0.8,0-1.5,2.4-1.5,5.4c0,3,0.7,5.4,1.5,5.4c0.8,0,1.5-2.4,1.5-5.4
	C23.9,311.5,23.2,309.1,22.4,309.1"/>
<path class="st1" d="M50.7,288.7c1.5,2.9,5.9,3.5,9.8,1.5c3.9-2,5.8-6,4.3-8.9c-1.5-2.9-5.9-3.5-9.8-1.5
	C51.1,281.8,49.2,285.8,50.7,288.7"/>
<path class="st1" d="M46.1,275.1c-3,2.1-4.7,4.9-3.7,6.3c1,1.4,4.2,0.9,7.2-1.1c3-2.1,4.7-4.9,3.7-6.3
	C52.3,272.6,49.1,273.1,46.1,275.1"/>
<path class="st1" d="M33,288.1c-2,3-2.5,6.3-1,7.3s4.3-0.7,6.3-3.7c2-3,2.4-6.3,1-7.3C37.8,283.4,35,285,33,288.1"/>
<path class="st1" d="M23.1,300.3c0.6,0.2,1.9-1.7,3-4.3c1-2.6,1.3-4.9,0.7-5.2c-0.6-0.2-1.9,1.7-3,4.3
	C22.8,297.7,22.5,300.1,23.1,300.3"/>
<path class="st1" d="M64.3,346.6c1.5-2.9-0.4-6.9-4.3-8.9c-3.9-2-8.3-1.4-9.8,1.5c-1.5,2.9,0.4,6.9,4.3,8.9
	C58.4,350.2,62.8,349.5,64.3,346.6"/>
<path class="st1" d="M26.9,337.8c0.6-0.3,0.3-2.6-0.7-5.2c-1-2.6-2.4-4.7-3-4.3C21.6,329.4,26,338.3,26.9,337.8"/>
<path class="st1" d="M33.6,285.2c1.8-2.4,2.7-4.7,2-5.2c-0.7-0.5-2.6,1-4.4,3.4c-1.8,2.4-2.7,4.7-2,5.2
	C29.9,289.1,31.9,287.5,33.6,285.2"/>
<path class="st1" d="M64.9,274.4c0,2.3,3.2,4.2,7.2,4.2c4,0,7.2-1.9,7.2-4.2c0-2.3-3.2-4.2-7.2-4.2
	C68.2,270.2,64.9,272.1,64.9,274.4"/>
<path class="st1" d="M49.3,347.7c-3-2.1-6.2-2.6-7.2-1.1c-1,1.4,0.7,4.3,3.7,6.3c3,2.1,6.3,2.6,7.2,1.1
	C54,352.6,52.3,349.7,49.3,347.7"/>
<path class="st1" d="M29.1,339.4c-0.7,0.5,0.3,2.8,2,5.2c1.8,2.4,3.8,3.9,4.4,3.4c0.7-0.5-0.2-2.8-2-5.2
	C31.7,340.4,29.7,338.9,29.1,339.4"/>
<path class="st1" d="M79.4,353.4c0-2.3-3.2-4.2-7.2-4.2c-4,0-7.2,1.9-7.2,4.2c0,2.3,3.2,4.2,7.2,4.2
	C76.1,357.6,79.4,355.8,79.4,353.4"/>
<path class="st1" d="M60.4,266.6c-3.3,0.8-5.7,2.5-5.4,3.7c0.3,1.3,3.2,1.7,6.5,0.9c3.3-0.8,5.7-2.5,5.4-3.7
	C66.6,266.2,63.7,265.8,60.4,266.6"/>
<path class="st1" d="M41.4,273.1c-2.4,1.8-3.9,3.8-3.4,4.4c0.5,0.6,2.8-0.3,5.2-2.1c2.4-1.8,3.9-3.8,3.4-4.4
	C46.1,270.4,43.7,271.3,41.4,273.1"/>
<path class="st1" d="M60.8,356.4c-3.3-0.8-6.2-0.4-6.5,0.9c-0.3,1.3,2.1,3,5.4,3.7c3.3,0.8,6.2,0.4,6.5-0.9
	C66.5,358.9,64.1,357.2,60.8,356.4"/>
<path class="st1" d="M46.4,356.8c0.5-0.6-1-2.6-3.4-4.4c-2.4-1.8-4.7-2.7-5.2-2.1c-0.4,0.5,0.4,1.8,1.9,3.2c1.2,0.9,2.4,1.8,3.7,2.7
	C44.9,357,46.1,357.2,46.4,356.8"/>
<path class="st1" d="M66.8,264.4c0,0.8,2.4,1.4,5.3,1.4c3,0,5.4-0.6,5.4-1.4c0-0.8-2.4-1.4-5.4-1.4C69.2,263,66.8,263.6,66.8,264.4"
	/>
<path class="st1" d="M48.7,268.9c0.2,0.6,2.6,0.3,5.2-0.7c2.6-1,4.6-2.4,4.3-3c-0.2-0.6-2.6-0.3-5.2,0.7
	C50.4,266.9,48.5,268.3,48.7,268.9"/>
<path class="st1" d="M39.9,273.6c1.9-1.5,3.3-3,3.1-3.3c-0.2-0.3-1.9,0.7-3.8,2.3c-1.9,1.5-3.3,3-3.1,3.3
	C36.3,276.1,38,275.1,39.9,273.6"/>
<path class="st1" d="M77.5,363.3c0-0.8-2.4-1.4-5.4-1.4c-3,0-5.3,0.6-5.3,1.4c0,0.8,2.4,1.4,5.3,1.4c0.4,0,0.7,0,1.1,0
	C75.7,364.6,77.5,364,77.5,363.3"/>
<path class="st1" d="M122.2,326.7c0.1,0.6,2.1-8.7,1.6-8.3c-0.4,0.4-1,2.2-1.3,4.3C122.2,324.4,122.1,325.8,122.2,326.7"/>
<path class="st1" d="M63.8,263.6c2.5-0.4,4.5-1,4.5-1.4c-0.1-0.4-2.2-0.4-4.7-0.1c-2.5,0.4-4.5,1-4.5,1.4
	C59.2,264,61.3,264,63.8,263.6"/>
<path class="st1" d="M48.9,267.4c2.1-1,3.7-2.1,3.6-2.4c-0.1-0.3-2,0.4-4.1,1.4c-2.1,1.1-3.7,2.1-3.6,2.4
	C45,269,46.8,268.4,48.9,267.4"/>
<path class="st1" d="M68.1,261.1c0,0.3,1.8,0.5,4.1,0.5c2.2,0,4.1-0.2,4.1-0.5c0-0.2-0.9-0.3-2.3-0.4c-0.6,0-1.2,0-1.8,0H72
	c-0.5,0-1,0-1.5,0C69.1,260.8,68.1,260.9,68.1,261.1"/>
<path class="st1" d="M97.7,292.5c-2.9,1.4-3.7,5.7-1.7,9.7c1.9,3.9,5.8,6,8.7,4.6c2.9-1.4,3.7-5.7,1.7-9.7
	C104.5,293.1,100.6,291.1,97.7,292.5"/>
<path class="st1" d="M115.9,297c-1.3,0.3-1.7,3.2-1,6.5c0.8,3.3,2.4,5.8,3.7,5.5c1.3-0.3,1.7-3.2,1-6.5
	C118.8,299.2,117.2,296.7,115.9,297"/>
<path class="st1" d="M118.7,319.6c-1.3-0.3-3,2.1-3.8,5.4c-0.8,3.3-0.4,6.2,0.9,6.6c1.3,0.3,3-2.1,3.8-5.4
	C120.3,322.9,119.9,319.9,118.7,319.6"/>
<path class="st1" d="M111.7,321.4c2.3,0,4.2-3.2,4.2-7.2c0-4-1.9-7.2-4.2-7.2c-2.3,0-4.2,3.2-4.2,7.2
	C107.5,318.2,109.4,321.4,111.7,321.4"/>
<path class="st1" d="M121.7,309.1c-0.8,0-1.5,2.4-1.5,5.4c0,3,0.6,5.4,1.5,5.4c0.8,0,1.5-2.4,1.5-5.4
	C123.2,311.5,122.5,309.1,121.7,309.1"/>
<path class="st1" d="M79.4,281.3c-1.5,2.9,0.4,6.9,4.3,8.9c3.9,2,8.3,1.4,9.8-1.5c1.5-2.9-0.4-6.9-4.3-8.9
	C85.2,277.7,80.9,278.4,79.4,281.3"/>
<path class="st1" d="M90.8,274c-1,1.4,0.7,4.3,3.7,6.3c3,2.1,6.3,2.6,7.2,1.1c1-1.4-0.7-4.3-3.7-6.3C95,273.1,91.8,272.6,90.8,274"
	/>
<path class="st1" d="M112.1,295.3c1.5-1,1-4.2-1-7.3c-2-3-4.8-4.7-6.3-3.7c-1.5,1-1,4.2,1,7.3C107.8,294.6,110.7,296.3,112.1,295.3"
	/>
<path class="st1" d="M121.1,300.3c0.6-0.2,0.3-2.6-0.7-5.2c-1-2.6-2.3-4.6-3-4.3c-0.6,0.2-0.3,2.6,0.7,5.2
	C119.1,298.6,120.4,300.5,121.1,300.3"/>
<path class="st1" d="M93.9,339.2c-1.5-2.9-5.9-3.5-9.8-1.5c-3.9,2-5.8,6-4.3,8.9c1.5,2.9,5.9,3.5,9.8,1.5
	C93.5,346.1,95.4,342.1,93.9,339.2"/>
<path class="st1" d="M114.9,288.6c0.7-0.5-0.3-2.8-2-5.2c-1.8-2.4-3.8-3.9-4.4-3.4c-0.7,0.5,0.3,2.8,2,5.2
	C112.3,287.5,114.3,289.1,114.9,288.6"/>
<path class="st1" d="M94.8,347.7c-3,2.1-4.7,4.9-3.7,6.3c1,1.4,4.2,0.9,7.2-1.1c3-2.1,4.7-4.9,3.7-6.3
	C101.1,345.1,97.8,345.6,94.8,347.7"/>
<path class="st1" d="M110.7,342.8c-1.8,2.4-2.7,4.7-2,5.2c0.7,0.5,2.6-1,4.4-3.4c1.8-2.4,2.7-4.7,2-5.2
	C114.4,338.9,112.4,340.4,110.7,342.8"/>
<path class="st1" d="M110.1,277.7c-0.3,0.2,0.7,2,2.2,3.9c1.5,1.9,3,3.4,3.2,3.1C116,284,111,277.2,110.1,277.7"/>
<path class="st1" d="M83.7,266.6c-3.3-0.8-6.2-0.4-6.5,0.9c-0.3,1.3,2.1,3,5.4,3.7c3.3,0.8,6.2,0.4,6.5-0.9
	C89.5,269.1,87,267.4,83.7,266.6"/>
<path class="st1" d="M102.8,273.1c-2.4-1.8-4.7-2.7-5.2-2.1c-0.5,0.6,1,2.6,3.4,4.4c2.4,1.8,4.7,2.7,5.2,2.1
	C106.6,276.9,105.1,274.9,102.8,273.1"/>
<path class="st1" d="M83.3,356.4c-3.3,0.8-5.7,2.5-5.4,3.7c0.3,1.3,3.2,1.7,6.5,0.9c3.3-0.8,5.7-2.5,5.4-3.7
	C89.5,356.1,86.6,355.7,83.3,356.4"/>
<path class="st1" d="M106.3,350.3c-0.5-0.6-2.8,0.3-5.2,2.1c-2.4,1.8-3.9,3.8-3.4,4.4c0.3,0.4,1.5,0.1,2.9-0.6
	c1.3-0.8,2.5-1.7,3.7-2.7C105.8,352.1,106.7,350.8,106.3,350.3"/>
<path class="st1" d="M90.2,268.1c2.6,1,5,1.4,5.2,0.7c0.2-0.6-1.7-2-4.3-3s-5-1.4-5.2-0.7C85.6,265.8,87.6,267.1,90.2,268.1"/>
<path class="st1" d="M104.2,273.6c1.9,1.5,3.6,2.5,3.9,2.3c0.2-0.3-1.1-1.7-3.1-3.3c-1.9-1.5-3.6-2.5-3.9-2.3
	C101,270.6,102.3,272.1,104.2,273.6"/>
<path class="st1" d="M90.9,359.5c-2.6,1.1-4.6,2.4-4.3,3l9.5-3.8C95.8,358.1,93.5,358.5,90.9,359.5"/>
<path class="st1" d="M90.9,359.5c-2.6,1.1-4.7,2.5-4.3,3c0.4,0.4,9.4-3.4,9.5-3.8C96.2,358.1,93.5,358.4,90.9,359.5"/>
<path class="st1" d="M80.3,263.6c2.5,0.4,4.6,0.3,4.7-0.1c0.1-0.4-1.9-1-4.5-1.4c-2.5-0.4-4.6-0.3-4.7,0.1
	C75.8,262.6,77.8,263.3,80.3,263.6"/>
<path class="st1" d="M95.3,267.4c2.1,1.1,3.9,1.7,4.1,1.4c0.1-0.3-1.5-1.3-3.6-2.4c-2.1-1.1-3.9-1.7-4.1-1.4
	C91.5,265.2,93.1,266.3,95.3,267.4"/>
<path class="st1" d="M86.2,263.2c2,0.6,3.7,0.9,3.8,0.7c0-0.3-6.8-2.4-7.4-2C82.4,261.9,84.1,262.6,86.2,263.2"/>
<path class="st1" d="M122.5,305.9c-0.4-2.5-0.4-4.5,0-4.7c0.9-0.3,1.8,9,1.5,9.1C123.6,310.4,122.9,308.4,122.5,305.9"/>
<path class="st1" d="M53.3,359.5c2.6,1.1,4.7,2.5,4.3,3c-0.4,0.4-9.4-3.4-9.5-3.8C47.9,358.1,50.6,358.5,53.3,359.5"/>
<path class="st1" d="M81.8,363.4c2.1-0.4,3.8-0.6,3.8-0.4c0,0.3-7,1.9-7.5,1.5C78,364.4,79.8,363.9,81.8,363.4"/>
<path class="st1" d="M62.8,363.4c-2.1-0.4-3.8-0.6-3.8-0.4c0,0.3,7,1.9,7.5,1.5C66.6,364.4,64.9,363.9,62.8,363.4"/>
<path class="st0" d="M610,300.1c6-2,11.6,3.6,9.6,9.6c-0.7,2.2-2.5,4-4.7,4.7c-6,2-11.6-3.6-9.6-9.6
	C606.1,302.6,607.8,300.8,610,300.1 M610.9,313.3c4.6,1.1,8.7-2.9,7.6-7.6c-0.5-2.2-2.3-4-4.5-4.5c-4.6-1.1-8.7,2.9-7.6,7.6
	C607,311,608.8,312.8,610.9,313.3 M609.6,302.9h3.3c2.1,0,3,0.9,3,2.6c0,1.5-0.9,2.2-2.1,2.4l2.3,3.7h-1.7l-2.1-3.5h-1.2v3.5h-1.6
	V302.9z M611.2,306.7h1.2c1,0,2.1-0.1,2.1-1.2c0-1.2-1.1-1.2-2.1-1.2h-1.2V306.7z"/>
<path class="st0" d="M185.7,271.8l38.5,83.7c0.4,0.8-0.2,1.7-1.1,1.7h-8.8c-0.5,0-0.9-0.3-1.1-0.7l-8.6-18.7
	c-0.2-0.4-0.6-0.7-1.1-0.7h-38c-0.5,0-0.9,0.3-1.1,0.7l-8.6,18.7c-0.2,0.4-0.6,0.7-1.1,0.7h-8.7c-0.9,0-1.5-0.9-1.1-1.7l38.5-83.7
	C183.9,270.9,185.2,270.9,185.7,271.8 M199.1,325.7l-13.4-29.3c-0.4-0.9-1.7-0.9-2.2,0L170,325.7c-0.4,0.8,0.2,1.7,1.1,1.7H198
	C198.9,327.4,199.5,326.5,199.1,325.7"/>
<path class="st0" d="M235,280.5l8-4c0.8-0.4,1.7,0.2,1.7,1.1V356c0,0.7-0.5,1.2-1.2,1.2h-8c-0.7,0-1.2-0.5-1.2-1.2v-74.4
	C234.4,281.1,234.6,280.7,235,280.5"/>
<path class="st0" d="M259,269.4l8-4c0.8-0.4,1.7,0.2,1.7,1.1V356c0,0.7-0.5,1.2-1.2,1.2h-8c-0.7,0-1.2-0.5-1.2-1.2v-85.6
	C258.4,270,258.6,269.6,259,269.4"/>
<path class="st0" d="M310.6,315.7c-0.5,0.4-1.2,0.3-1.6-0.1c-2.4-2.6-5.8-4.6-10.5-4.6c-4.8,0-9.1,2.2-9.1,6.1
	c0,6.6,9.3,7.5,13.9,8.5c9,2.2,15.9,5.6,15.9,15.9c0,12.3-11.3,17.1-22.1,17.1c-8.6,0-15.1-2.1-20.3-8.7c-0.4-0.5-0.3-1.3,0.2-1.7
	l6.1-5c0.5-0.4,1.2-0.4,1.6,0.1c3.2,3,6.9,5.7,12.5,5.7c5.3,0,11-2.2,11-6.9c0-6.2-8.6-7.4-13.1-8.4c-8.9-2.2-16.7-5.1-16.7-15.5
	c0-11.4,10.5-16.8,20.7-16.8c6.9,0,14,2.3,18,8c0.4,0.5,0.2,1.2-0.3,1.6L310.6,315.7z"/>
<path class="st0" d="M368.7,316.4c-0.5,0.4-1.2,0.4-1.7,0c-3.6-3.5-7.4-5.3-12.8-5.3c-11.3,0-17,9.1-17,19.3
	c0,10.2,6.9,18.5,17.6,18.5c5.3,0,9.1-1.8,12.4-5.2c0.5-0.5,1.3-0.5,1.7,0l5.6,5.6c0.5,0.5,0.5,1.2,0,1.7c-5.2,5.2-12,7.4-19.3,7.5
	c-15.8,0.2-29.1-12.6-29.1-28.4c0-16.8,11.5-28.8,28.5-28.8c7.5,0,14.7,2.5,20.1,7.7c0.5,0.5,0.4,1.3-0.1,1.7L368.7,316.4z"/>
<path class="st0" d="M386,302.7h8c0.7,0,1.2,0.5,1.2,1.2v7.2h0.2c2.7-5.8,9.5-9.8,16.3-9.8c1.2,0,2.5,0.1,3.6,0.4
	c0.6,0.1,1,0.6,0.9,1.2l-0.4,8.8c0,0.7-0.7,1.3-1.4,1.1c-1.3-0.3-2.5-0.5-3.7-0.5c-10.1,0-15.7,5.5-15.7,17.5v26.2
	c0,0.7-0.5,1.2-1.2,1.2h-8c-0.7,0-1.2-0.5-1.2-1.2v-52.1C384.8,303.3,385.4,302.7,386,302.7"/>
<path class="st0" d="M429.2,276c6-2,11.7,3.7,9.7,9.7c-0.7,2.2-2.5,3.9-4.7,4.7c-6,2-11.7-3.7-9.7-9.7
	C425.2,278.5,427,276.7,429.2,276 M427.7,302.7h8c0.7,0,1.2,0.5,1.2,1.2v52.1c0,0.7-0.5,1.2-1.2,1.2h-8c-0.7,0-1.2-0.5-1.2-1.2
	v-52.1C426.5,303.3,427,302.7,427.7,302.7"/>
<path class="st0" d="M450.8,302.7h8c0.7,0,1.2,0.5,1.2,1.2v6.6h0.2c4-5.9,11.6-9.2,19-9.2c16.9,0,27.7,12.5,27.7,28.7
	c0,16.3-10.9,28.7-27.7,28.7c-7.8,0-15.3-3.6-19-9.2H460v28.9c0,0.5-0.3,0.9-0.7,1.1l-8,3.9c-0.8,0.4-1.7-0.2-1.7-1.1v-78.4
	C449.6,303.2,450.1,302.7,450.8,302.7 M460,328.3c-0.7,12,6.3,20.8,18,20.7c9.5-0.1,17.2-7.8,17.8-17.3c0.7-12-6.4-20.7-18-20.7
	C468.3,311,460.6,318.8,460,328.3"/>
<path class="st0" d="M588,315.7c-0.5,0.4-1.2,0.3-1.6-0.1c-2.4-2.6-5.8-4.6-10.5-4.6c-4.8,0-9.1,2.2-9.1,6.1c0,6.6,9.3,7.5,13.9,8.5
	c9,2.2,15.9,5.6,15.9,15.9c0,12.3-11.3,17.1-22.1,17.1c-8.6,0-15.1-2.1-20.3-8.7c-0.4-0.5-0.3-1.3,0.2-1.7l6.1-5
	c0.5-0.4,1.2-0.4,1.6,0.1c3.2,3,6.9,5.7,12.5,5.7c5.3,0,11-2.2,11-6.9c0-6.2-8.6-7.4-13.1-8.4c-8.9-2.2-16.7-5.1-16.7-15.5
	c0-11.4,10.5-16.8,20.7-16.8c6.9,0,14,2.3,18,8c0.4,0.5,0.2,1.2-0.3,1.6L588,315.7z"/>
<path class="st0" d="M530.4,336.4v-22.5c0-0.7,0.5-1.2,1.2-1.2h9.2c0.4,0,0.9-0.3,1.1-0.7l4-8c0.4-0.8-0.2-1.7-1.1-1.7h-13.2
	c-0.7,0-1.2-0.5-1.2-1.2v-13.8c0-0.9-0.9-1.5-1.7-1.1l-8,4c-0.4,0.2-0.7,0.6-0.7,1.1v9.8c0,0.7-0.5,1.2-1.2,1.2h-5.6
	c-0.7,0-1.2,0.5-1.2,1.2v8c0,0.7,0.5,1.2,1.2,1.2h5.6c0.7,0,1.2,0.5,1.2,1.2v26.2c0,8.7,0.2,18.5,16.2,18.5c1.9,0,6-0.4,8.6-1.5
	c0.5-0.2,0.8-0.6,0.8-1.1v-6.8c0-0.8-0.8-1.4-1.6-1.1c-1.8,0.7-3.9,0.9-5.8,0.9C530.4,349,530.4,342.5,530.4,336.4"/>
</svg>
