<?xml version="1.0" encoding="UTF-8"?>
<svg id="Layer_2" data-name="Layer 2" xmlns="http://www.w3.org/2000/svg" width="527.07776" height="118.31001" viewBox="0 0 527.07776 118.31001">
  <defs>
    <style>
      .cls-1 {
        stroke-linecap: round;
        stroke-linejoin: round;
        stroke-width: 2.5px;
      }

      .cls-1, .cls-2 {
        fill: none;
        stroke: #00d4a8;
      }

      .cls-3, .cls-4, .cls-2 {
        isolation: isolate;
      }

      .cls-4 {
        fill: #00c4d3;
        opacity: .15;
      }

      .cls-2 {
        opacity: .3;
        stroke-width: 3px;
      }

      .cls-5 {
        fill: #1f365a;
      }

      .cls-6 {
        fill: #00d4a8;
      }
    </style>
  </defs>
  <g id="Layer_2-2" data-name="Layer 2">
    <g id="Layer_1-2" data-name="Layer 1-2">
      <g>
        <path class="cls-4" d="M55.76691,16.78198l31.37961,18.92583c2.07848,1.25358,3.34908,3.50371,3.34908,5.93095v35.03251c0,2.42724-1.2706,4.67737-3.34908,5.93095l-31.37961,18.92583c-2.20014,1.32697-4.95407,1.32697-7.15421,0l-31.37961-18.92583c-2.07847-1.25358-3.34907-3.50371-3.34907-5.93095v-35.03251c0-2.42724,1.2706-4.67737,3.34907-5.93095l31.37961-18.92583c2.20014-1.32696,4.95407-1.32696,7.15421,0Z"/>
        <path class="cls-2" d="M56.10439,2.58911l43.11019,26.00083c2.27457,1.37184,3.66502,3.83426,3.66502,6.49049v48.14915c0,2.65624-1.39047,5.11865-3.66502,6.49049l-43.11019,26.00082c-2.40771,1.45215-5.42145,1.45215-7.82916,0L5.16503,89.72007c-2.27456-1.37184-3.66503-3.83426-3.66503-6.49049v-48.14915c0-2.65624,1.39047-5.11865,3.66503-6.49049L48.27522,2.58911c2.40771-1.45215,5.42145-1.45215,7.82916,0Z"/>
        <polyline class="cls-1" points="9.5787 59.15502 29.85463 59.15502 39.04214 32.70129 50.13054 85.60876 61.37733 44.89851 70.40646 59.15502 94.80093 59.15502"/>
        <g class="cls-3">
          <path class="cls-5" d="M161.33948,30.42773v26.34277h-5.28369v-11.20898h-11.28418v11.20898h-5.28369v-26.34277h5.28369v10.83154h11.28418v-10.83154h5.28369Z"/>
          <path class="cls-5" d="M175.34094,34.69238v6.60449h8.86914v4.18945h-8.86914v6.98193h10.00098v4.30225h-15.28467v-26.38037h15.28467v4.30225h-10.00098Z"/>
          <path class="cls-5" d="M209.79797,51.75098h-10.4917l-1.73584,5.01953h-5.54785l9.47266-26.38037h6.15186l9.47266,26.38037h-5.58545l-1.73633-5.01953ZM208.36389,47.52393l-3.81152-11.02002-3.81201,11.02002h7.62354Z"/>
          <path class="cls-5" d="M229.46008,52.58154h8.68018v4.18896h-13.96387v-26.34277h5.28369v22.15381Z"/>
          <path class="cls-5" d="M262.93616,30.42773v4.26465h-7.01953v22.07812h-5.28418v-22.07812h-7.01953v-4.26465h19.32324Z"/>
          <path class="cls-5" d="M292.14612,30.42773v26.34277h-5.2832v-11.20898h-11.28418v11.20898h-5.28418v-26.34277h5.28418v10.83154h11.28418v-10.83154h5.2832Z"/>
          <path class="cls-5" d="M329.5094,51.75098h-10.49219l-1.73535,5.01953h-5.54785l9.47266-26.38037h6.15137l9.47266,26.38037h-5.58496l-1.73633-5.01953ZM328.07483,47.52393l-3.81152-11.02002-3.81152,11.02002h7.62305Z"/>
          <path class="cls-5" d="M360.39905,32.05078c2.10059,1.08203,3.72363,2.62305,4.86816,4.62305s1.71777,4.32129,1.71777,6.96289c0,2.64209-.57324,4.95068-1.71777,6.92529-1.14453,1.97559-2.76758,3.50439-4.86816,4.58545-2.10156,1.08252-4.53516,1.62305-7.30273,1.62305h-9.20898v-26.34277h9.20898c2.76758,0,5.20117.5415,7.30273,1.62305ZM359.32385,50.01514c1.50879-1.50977,2.26367-3.63574,2.26367-6.37842,0-2.7417-.75488-4.88721-2.26367-6.43457-1.50977-1.54736-3.64844-2.3208-6.41602-2.3208h-3.73633v17.39795h3.73633c2.76758,0,4.90625-.75488,6.41602-2.26416Z"/>
          <path class="cls-5" d="M398.11975,30.42773l-9.66113,26.34277h-6.41602l-9.66113-26.34277h5.66113l7.24609,20.9458,7.20801-20.9458h5.62305Z"/>
          <path class="cls-5" d="M410.08362,30.42773v26.34277h-5.2832v-26.34277h5.2832Z"/>
          <path class="cls-5" d="M422.9342,56.09131c-1.47168-.62891-2.63574-1.53467-3.49121-2.71729s-1.2959-2.5791-1.32031-4.18945h5.66113c.0752,1.08203.45801,1.93799,1.15039,2.56641.69238.62939,1.6416.94336,2.84961.94336,1.23242,0,2.20117-.29541,2.90625-.88672.7041-.59082,1.05664-1.36426,1.05664-2.3208,0-.77979-.23926-1.42139-.7168-1.9248-.47852-.50293-1.07617-.89941-1.79297-1.18896-.7168-.28906-1.70508-.60986-2.96289-.9624-1.71094-.50293-3.10059-1-4.16992-1.49072-1.07031-.49072-1.98828-1.23242-2.75488-2.22656-.76855-.99365-1.15137-2.32129-1.15137-3.98145,0-1.56006.38965-2.91846,1.16992-4.07617.7793-1.15723,1.87402-2.04395,3.2832-2.66064,1.40918-.61621,3.01953-.9248,4.83105-.9248,2.7168,0,4.9248.66064,6.62305,1.98145s2.63574,3.16455,2.81152,5.52881h-5.81152c-.05078-.90576-.43359-1.65381-1.15137-2.24561-.7168-.59082-1.66699-.88672-2.84961-.88672-1.03125,0-1.85547.26416-2.47168.79248s-.9248,1.29639-.9248,2.30225c0,.70459.23242,1.28955.69824,1.75488.46582.46582,1.04395.84326,1.73633,1.13232.69141.28955,1.66602.62256,2.9248,1,1.71094.50391,3.10742,1.00684,4.18945,1.50977,1.08105.50342,2.0127,1.2583,2.79297,2.26416.7793,1.00684,1.16992,2.32764,1.16992,3.96289,0,1.40918-.36523,2.71729-1.09473,3.9248-.73047,1.20801-1.79883,2.17041-3.20801,2.88721-1.40918.71729-3.08203,1.07568-5.01953,1.07568-1.83691,0-3.49121-.31445-4.96289-.94336Z"/>
          <path class="cls-5" d="M450.7301,55.29883c-2.06348-1.15723-3.69824-2.76123-4.90625-4.81201-1.20801-2.05029-1.81152-4.37158-1.81152-6.96338,0-2.56592.60352-4.87402,1.81152-6.92529,1.20801-2.05029,2.84277-3.6543,4.90625-4.81152,2.0625-1.15723,4.32715-1.73633,6.79297-1.73633,2.49121,0,4.76172.5791,6.8125,1.73633,2.0498,1.15723,3.67285,2.76123,4.86816,4.81152,1.19434,2.05127,1.79297,4.35938,1.79297,6.92529,0,2.5918-.59863,4.91309-1.79297,6.96338-1.19531,2.05078-2.82422,3.65479-4.8877,4.81201-2.0625,1.15723-4.32715,1.73584-6.79297,1.73584s-4.73047-.57861-6.79297-1.73584ZM461.71252,51.2417c1.20801-.71729,2.15137-1.74219,2.83008-3.07617.67969-1.33301,1.01953-2.88037,1.01953-4.64209,0-1.76074-.33984-3.30225-1.01953-4.62305-.67871-1.3208-1.62207-2.3335-2.83008-3.03809-1.20801-.7041-2.60449-1.05664-4.18945-1.05664s-2.98828.35254-4.20801,1.05664c-1.2207.70459-2.16992,1.71729-2.84961,3.03809-.67871,1.3208-1.01855,2.8623-1.01855,4.62305,0,1.76172.33984,3.30908,1.01855,4.64209.67969,1.33398,1.62891,2.35889,2.84961,3.07617,1.21973.7168,2.62305,1.07568,4.20801,1.07568s2.98145-.35889,4.18945-1.07568Z"/>
          <path class="cls-5" d="M492.01721,56.77051l-5.8125-10.26514h-2.49023v10.26514h-5.28418v-26.34277h9.88867c2.03711,0,3.77344.3584,5.20801,1.07568,1.43359.71729,2.50977,1.68604,3.22656,2.90576.7168,1.2207,1.0752,2.58545,1.0752,4.09521,0,1.73584-.50293,3.30225-1.50879,4.69873-1.00684,1.396-2.50391,2.3584-4.49121,2.88672l6.30273,10.68066h-6.11426ZM483.71448,42.54248h4.41504c1.43457,0,2.50391-.3457,3.20801-1.03809.7041-.69141,1.05664-1.65381,1.05664-2.88672,0-1.20801-.35254-2.14502-1.05664-2.81201-.7041-.66602-1.77344-1-3.20801-1h-4.41504v7.73682Z"/>
          <path class="cls-5" d="M527.07776,30.42773l-8.90723,17.17188v9.1709h-5.2832v-9.1709l-8.94434-17.17188h5.96289l5.66113,12.03906,5.62305-12.03906h5.8877Z"/>
        </g>
        <g class="cls-3">
          <g class="cls-3">
            <path class="cls-6" d="M154.54651,82.72461c-1.48486,1.38379-3.71191,2.07617-6.68018,2.07617h-5.32129v11.24609h-2.64209v-26.37988h7.96338c2.94385,0,5.16406.69238,6.66113,2.0752,1.49658,1.38379,2.24561,3.2207,2.24561,5.51074,0,2.26367-.74268,4.08887-2.22656,5.47168ZM154.05579,77.25293c0-1.76172-.49072-3.09473-1.47217-4.00098-.98096-.90527-2.55371-1.3584-4.71729-1.3584h-5.32129v10.64258h5.32129c4.12598,0,6.18945-1.76074,6.18945-5.2832Z"/>
            <path class="cls-6" d="M184.7008,89.78223h-12.00146l-2.30225,6.26465h-2.79297l9.62402-26.04102h2.98145l9.58594,26.04102h-2.79297l-2.30176-6.26465ZM183.90832,87.59375l-5.2085-14.2666-5.20801,14.2666h10.4165Z"/>
            <path class="cls-6" d="M216.28918,96.04687l-6.5293-11.01953h-4.86816v11.01953h-2.64209v-26.37988h7.92578c2.94336,0,5.17627.7041,6.69873,2.11328,1.52197,1.40918,2.2832,3.25879,2.2832,5.54785,0,1.91211-.54736,3.54199-1.6416,4.88672-1.09424,1.34668-2.71143,2.22168-4.84961,2.62305l6.79346,11.20898h-3.17041ZM204.89172,82.87598h5.32129c2.0625,0,3.6167-.50293,4.66113-1.50977,1.04346-1.00586,1.56592-2.35254,1.56592-4.03809,0-1.73633-.50342-3.07617-1.50977-4.01953s-2.59131-1.41504-4.75488-1.41504h-5.28369v10.98242Z"/>
            <path class="cls-6" d="M248.06604,69.66699v2.18848h-7.32129v24.19141h-2.64209v-24.19141h-7.35938v-2.18848h17.32275Z"/>
            <path class="cls-6" d="M280.3717,96.04687h-2.6416l-14.60547-22.19141v22.19141h-2.64258v-26.37988h2.64258l14.60547,22.15332v-22.15332h2.6416v26.37988Z"/>
            <path class="cls-6" d="M297.24084,71.81738v9.85059h10.00098v2.18945h-10.00098v10.00098h11.13379v2.18848h-13.77539v-26.41797h13.77539v2.18848h-11.13379Z"/>
            <path class="cls-6" d="M335.84924,96.04687l-6.5293-11.01953h-4.86816v11.01953h-2.64258v-26.37988h7.92578c2.94336,0,5.17676.7041,6.69922,2.11328,1.52148,1.40918,2.2832,3.25879,2.2832,5.54785,0,1.91211-.54785,3.54199-1.6416,4.88672-1.09473,1.34668-2.71191,2.22168-4.84961,2.62305l6.79297,11.20898h-3.16992ZM324.45178,82.87598h5.32129c2.0625,0,3.61621-.50293,4.66113-1.50977,1.04297-1.00586,1.56543-2.35254,1.56543-4.03809,0-1.73633-.50293-3.07617-1.50977-4.01953-1.00586-.94336-2.59082-1.41504-4.75488-1.41504h-5.2832v10.98242Z"/>
            <path class="cls-6" d="M355.6051,95.40527c-1.32031-.60352-2.3584-1.44629-3.11328-2.52832-.75488-1.08105-1.15723-2.28906-1.20801-3.62305h2.79297c.12598,1.2832.69238,2.40918,1.69824,3.37793s2.47852,1.45312,4.41602,1.45312c1.78613,0,3.20117-.45898,4.24609-1.37793,1.04297-.91797,1.56543-2.08105,1.56543-3.49121,0-1.13184-.28906-2.04395-.86719-2.73633-.5791-.69141-1.29688-1.20703-2.15137-1.54688-.85547-.33984-2.03809-.71094-3.54785-1.11328-1.76172-.47754-3.1582-.94336-4.18945-1.39648s-1.91211-1.15723-2.6416-2.11328c-.73047-.95605-1.09473-2.25195-1.09473-3.8877,0-1.3584.35254-2.57227,1.05664-3.6416s1.69824-1.90625,2.98145-2.50977,2.75586-.90527,4.41602-.90527c2.44043,0,4.40918.59766,5.90625,1.79199,1.49707,1.19531,2.3584,2.73633,2.58496,4.62305h-2.86816c-.17578-1.08105-.76758-2.04395-1.77344-2.88672-1.00684-.84277-2.36523-1.26465-4.07617-1.26465-1.58496,0-2.90625.42188-3.96289,1.26465s-1.58496,1.99414-1.58496,3.45312c0,1.10742.28906,2,.86816,2.67969.57812.67969,1.30176,1.19531,2.16992,1.54688.86816.35254,2.04395.73047,3.5293,1.13281,1.70996.47754,3.09473.9502,4.15137,1.41504,1.05664.46582,1.94922,1.17676,2.67969,2.13184.72852.95703,1.09375,2.24023,1.09375,3.84961,0,1.2334-.32715,2.40332-.98145,3.50977-.6543,1.10742-1.62207,2.00098-2.90527,2.67969-1.2832.67969-2.81836,1.01953-4.60449,1.01953-1.73633,0-3.26465-.30176-4.58594-.90625Z"/>
          </g>
        </g>
      </g>
    </g>
  </g>
</svg>