<?xml version="1.0" encoding="UTF-8"?>
<svg id="Layer_2" data-name="Layer 2" xmlns="http://www.w3.org/2000/svg" width="29.64462" height="33.60885" viewBox="0 0 29.64462 33.60885">
  <defs>
    <style>
      .cls-1 {
        opacity: .3;
      }

      .cls-1, .cls-2 {
        isolation: isolate;
      }

      .cls-2 {
        opacity: .15;
      }

      .cls-3 {
        fill: #4fb89d;
      }

      .cls-4 {
        fill: #34bacc;
      }
    </style>
  </defs>
  <g id="Layer_1-2" data-name="Layer 1">
    <g>
      <g class="cls-2">
        <path class="cls-4" d="M15.83963,4.75302l8.9248,5.38277c.59115.35654.95252.9965.95252,1.68684v9.96373c0,.69034-.36137,1.33031-.95252,1.68684l-8.9248,5.38277c-.62575.37741-1.409.37741-2.03476,0l-8.9248-5.38277c-.59115-.35654-.95252-.9965-.95252-1.68684v-9.96373c0-.69034.36137-1.33031.95252-1.68684l8.9248-5.38277c.62575-.37741,1.40901-.37741,2.03476,0Z"/>
      </g>
      <g class="cls-1">
        <path class="cls-3" d="M14.82231,33.60885c-.45735,0-.91469-.12297-1.32276-.36913L1.23829,25.84473c-.76378-.46043-1.23829-1.30077-1.23829-2.19302v-13.69445c0-.89204.47451-1.73238,1.23829-2.19302L13.49955.36924c.81614-.49232,1.82939-.49232,2.64553,0l12.26104,7.39499c.764.46065,1.23851,1.30099,1.23851,2.19302v13.69445c0,.89226-.47451,1.73259-1.23851,2.19324l-12.26104,7.39477c-.40785.24616-.86542.36913-1.32276.36913ZM14.82231.81141c-.3126,0-.62519.08403-.90391.2521L1.65714,8.4585c-.52202.31502-.84628.88918-.84628,1.49875v13.69445c0,.6098.32426,1.18395.84628,1.49853l12.26126,7.39521c.55744.33614,1.25039.33614,1.80783,0l12.26104-7.39499c.52224-.3148.8465-.88918.8465-1.49875v-13.69445c0-.60958-.32448-1.18373-.8465-1.49875L15.72623,1.06351c-.27872-.16807-.59132-.2521-.90391-.2521Z"/>
      </g>
      <path class="cls-3" d="M14.23671,24.89153c-.00594,0-.01188,0-.01804-.00022-.25958-.00814-.48001-.19315-.53346-.44745l-2.73682-13.05936-1.94664,5.60476c-.07853.22658-.29214.37837-.53192.37837H2.70316c-.31106,0-.56316-.2521-.56316-.56316s.2521-.56316.56316-.56316h5.36607l2.48164-7.1453c.08271-.2389.31194-.39091.56778-.37727.25254.01628.46351.19887.51542.44657l2.67765,12.77624,2.58063-9.34185c.0594-.2147.23978-.37419.46021-.40697.22152-.03278.43931.06754.55854.25562l2.40223,3.79297h6.62812c.31106,0,.56316.2521.56316.56316s-.2521.56316-.56316.56316h-6.93808c-.19293,0-.37243-.09877-.47583-.26178l-1.8879-2.981-2.86023,10.35355c-.06776.24462-.29038.41313-.5427.41313Z"/>
    </g>
  </g>
</svg>