<?xml version="1.0" encoding="UTF-8"?>
<svg id="Layer_2" xmlns="http://www.w3.org/2000/svg" version="1.1" xmlns:xlink="http://www.w3.org/1999/xlink" viewBox="0 0 1584 407.8">
  <!-- Generator: Adobe Illustrator 29.5.1, SVG Export Plug-In . SVG Version: 2.1.0 Build 141)  -->
  <defs>
    <style>
      .st0 {
        letter-spacing: .1em;
      }

      .st0, .st1, .st2, .st3, .st4, .st5, .st6, .st7, .st8, .st9, .st10, .st11, .st12, .st13 {
        fill: #fff;
      }

      .st0, .st1, .st2, .st3, .st5, .st6, .st7, .st14, .st8, .st9, .st10, .st11, .st12, .st13 {
        isolation: isolate;
      }

      .st0, .st1, .st6, .st8, .st12, .st13 {
        font-family: Barlow-Bold, Barlow;
        font-size: 23px;
        font-weight: 700;
      }

      .st1 {
        letter-spacing: .2em;
      }

      .st2 {
        letter-spacing: 0em;
      }

      .st2, .st3, .st5, .st7, .st9, .st10, .st11 {
        font-family: BebasNeue-Regular, 'Bebas Neue';
        font-size: 31.7px;
      }

      .st3 {
        letter-spacing: 0em;
      }

      .st15 {
        stroke: #4ab696;
        stroke-miterlimit: 10;
        stroke-width: 3.5px;
      }

      .st15, .st16 {
        fill: none;
      }

      .st5 {
        letter-spacing: .1em;
      }

      .st6 {
        letter-spacing: .2em;
      }

      .st7 {
        letter-spacing: .1em;
      }

      .st17 {
        fill: #00c29a;
      }

      .st8 {
        letter-spacing: .2em;
      }

      .st9 {
        letter-spacing: .1em;
      }

      .st10 {
        letter-spacing: .1em;
      }

      .st11 {
        letter-spacing: .1em;
      }

      .st18 {
        clip-path: url(#clippath);
      }

      .st12 {
        letter-spacing: .2em;
      }

      .st13 {
        letter-spacing: .2em;
      }
    </style>
    <clipPath id="clippath">
      <path class="st16" d="M1002.6,257.3c-1.3,0-2.3-1-2.3-2.3v-112.2c0-1.3,1-2.3,2.3-2.3h14.3c1.3,0,2.3,1,2.3,2.3v112.2c0,1.3-1,2.3-2.3,2.3h-14.3ZM1066,156.1c0,.3,0,.6-.1.9l-20,80.8c-.3,1,.5,2,1.6,2h16.2c1.3,0,2.3,1,2.3,2.3v12.9c0,1.3-1,2.3-2.3,2.3h-36.2c-1.3,0-2.3-1-2.3-2.3v-13.3c0-.3,0-.6.1-.9l20-80.8c.3-1-.5-2-1.6-2h-16.2c-1.3,0-2.3-1-2.3-2.3v-12.8c0-1.3,1-2.3,2.3-2.3h36.2c1.3,0,2.3,1,2.3,2.3v13.3h0ZM1118.6,163.8v70.1c0,14.6-2.9,23.4-14.6,23.4h-17.5c-11.7,0-14.6-8.8-14.6-23.4v-70.1c0-14.6,2.9-23.4,14.6-23.4h17.5c11.7,0,14.6,8.8,14.6,23.4ZM1098,158h-5.5c-.9,0-1.6.7-1.6,1.6v78.6c0,.9.7,1.6,1.6,1.6h5.5c.9,0,1.6-.7,1.6-1.6v-78.6c0-.9-.7-1.6-1.6-1.6h0ZM1126.8,257.3c-1.3,0-2.3-1-2.3-2.3v-112.2c0-1.3,1-2.3,2.3-2.3h15.9c.4,0,.7.3.9.7l9.8,47.7c.2.7.8,1.3,1.6,1.3s1.6-.7,1.6-1.6v-45.7c0-1.3,1-2.3,2.3-2.3h15.8c1.3,0,2.3,1,2.3,2.3v112.2c0,1.3-1,2.3-2.3,2.3h-15.3c-.4,0-.7-.3-.9-.7l-11.8-53.5c-.2-.7-.8-1.3-1.6-1.3h0c-.9,0-1.6.7-1.6,1.6v51.6c0,1.3-1,2.3-2.3,2.3h-14.3ZM1209,158h-5.5c-.9,0-1.6.7-1.6,1.6v19.6c0,1.6-.1,4.4,2.9,5.8l11.7,5.8c8.9,4.4,13.1,9.6,13.1,21.5v21.6c0,14.6-2.9,23.4-14.6,23.4h-17.5c-11.7,0-14.6-8.8-14.6-23.4v-21.9c0-1.3,1-2.3,2.3-2.3h14.3c1.3,0,2.3,1,2.3,2.3v26.1c0,.9.7,1.6,1.6,1.6h5.5c.9,0,1.6-.7,1.6-1.6v-25.4c0-1.6.1-4.4-2.9-5.8l-11.7-5.8c-8.9-4.4-13.1-9.6-13.1-21.5v-15.8c0-14.6,2.9-23.4,14.6-23.4h17.5c11.7,0,14.6,8.8,14.6,23.4v16.1c0,1.3-1,2.3-2.3,2.3h-14.3c-1.3,0-2.3-1-2.3-2.3v-20.3c0-.9-.7-1.6-1.6-1.6h0ZM358,257.3c-1.3,0-2.3-1-2.3-2.3v-112.2c0-1.3,1-2.3,2.3-2.3h14.3c1.3,0,2.3,1,2.3,2.3v112.2c0,1.3-1,2.3-2.3,2.3h-14.3s0,0,0,0ZM382.9,257.3c-1.3,0-2.3-1-2.3-2.3v-112.2c0-1.3,1-2.3,2.3-2.3h15.9c.4,0,.7.3.9.7l9.8,47.7c.2.7.8,1.3,1.6,1.3s1.6-.7,1.6-1.6v-45.7c0-1.3,1-2.3,2.3-2.3h15.8c1.3,0,2.3,1,2.3,2.3v112.2c0,1.3-1,2.3-2.3,2.3h-15.3c-.4,0-.7-.3-.9-.7l-11.8-53.5c-.2-.7-.8-1.3-1.6-1.3h0c-.9,0-1.6.7-1.6,1.6v51.6c0,1.3-1,2.3-2.3,2.3h-14.3,0ZM441.3,257.3c-1.3,0-2.3-1-2.3-2.3v-112.2c0-1.3,1-2.3,2.3-2.3h15.9c.4,0,.7.3.9.7l9.8,47.7c.2.7.8,1.3,1.6,1.3s1.6-.7,1.6-1.6v-45.7c0-1.3,1-2.3,2.3-2.3h15.8c1.3,0,2.3,1,2.3,2.3v112.2c0,1.3-1,2.3-2.3,2.3h-15.3c-.4,0-.7-.3-.9-.7l-11.8-53.5c-.2-.7-.8-1.3-1.6-1.3h0c-.9,0-1.6.7-1.6,1.6v51.6c0,1.3-1,2.3-2.3,2.3h-14.3,0ZM544.1,163.8v70.1c0,14.6-2.9,23.4-14.6,23.4h-17.5c-11.7,0-14.6-8.8-14.6-23.4v-70.1c0-14.6,2.9-23.4,14.6-23.4h17.5c11.7,0,14.6,8.8,14.6,23.4ZM523.5,158h-5.5c-.9,0-1.6.7-1.6,1.6v78.6c0,.9.7,1.6,1.6,1.6h5.5c.9,0,1.6-.7,1.6-1.6v-78.6c0-.9-.7-1.6-1.6-1.6h0ZM556.4,257.3c-1.5,0-2.7-1.2-2.8-2.6l-6.3-113.5c0-.6.3-.7.7-.7h17.5c.4,0,.7.1.7.7l5,97.1c0,.8.7,1.5,1.5,1.5s1.5-.6,1.5-1.5l5-97.1c0-.6.3-.7.7-.7h17.5c.4,0,.7.1.7.7l-6.3,113.5c0,1.5-1.3,2.6-2.8,2.6h-33,0ZM648.1,256.6c0,.6-.3.7-.7.7h-17.5c-.4,0-.7-.1-.7-.7l-1.4-27.8c0-.8-.7-1.5-1.5-1.5h-7.3c-.8,0-1.5.6-1.5,1.5l-1.4,27.8c0,.6-.3.7-.7.7h-17.5c-.4,0-.7-.1-.7-.7l6.4-115.4c0-.6.3-.7.7-.7h36.8c.4,0,.7.1.7.7l6.4,115.4ZM620.1,209.8h4.9c.9,0,1.6-.7,1.5-1.6l-2.5-48.8c0-.8-.7-1.5-1.5-1.5s-1.5.6-1.5,1.5l-2.5,48.8c0,.9.7,1.6,1.5,1.6ZM685.6,140.4c1,0,1.9.8,1.9,1.9v13.7c0,1-.8,1.9-1.9,1.9h-8.6c-.6,0-1.2.5-1.2,1.2v96.3c0,1-.8,1.9-1.9,1.9h-15.2c-1,0-1.9-.8-1.9-1.9v-96.3c0-.6-.5-1.2-1.2-1.2h-8.6c-1,0-1.9-.8-1.9-1.9v-13.7c0-1,.8-1.9,1.9-1.9h38.6s0,0,0,0ZM695.3,257.3c-1,0-1.9-.8-1.9-1.9v-113.1c0-1,.8-1.9,1.9-1.9h15.2c1,0,1.9.8,1.9,1.9v113.1c0,1-.8,1.9-1.9,1.9h-15.2ZM765,163.8v70.1c0,14.6-2.9,23.4-14.6,23.4h-17.5c-11.7,0-14.6-8.8-14.6-23.4v-70.1c0-14.6,2.9-23.4,14.6-23.4h17.5c11.7,0,14.6,8.8,14.6,23.4ZM744.8,158h-6.4c-.6,0-1.2.5-1.2,1.2v79.5c0,.6.5,1.2,1.2,1.2h6.4c.6,0,1.2-.5,1.2-1.2v-79.5c0-.6-.5-1.2-1.2-1.2ZM772.7,257.3c-1,0-1.9-.8-1.9-1.9v-113.1c0-1,.8-1.9,1.9-1.9h16.4c.4,0,.7.3.9.7l9.9,48c.1.5.6.9,1.1.9h.8c.6,0,1.2-.5,1.2-1.2v-46.6c0-1,.8-1.9,1.9-1.9h16.7c1,0,1.9.8,1.9,1.9v113.1c0,1-.8,1.9-1.9,1.9h-15.8c-.4,0-.7-.3-.9-.7l-11.9-53.9c-.1-.5-.6-.9-1.1-.9h-.8c-.6,0-1.2.5-1.2,1.2v52.5c0,1-.8,1.9-1.9,1.9h-15.2,0ZM888.7,140.4c1,0,1.9.8,1.9,1.9v113.1c0,1-.8,1.9-1.9,1.9h-15.2c-1,0-1.9-.8-1.9-1.9v-46.6c0-.6-.5-1.2-1.2-1.2h-6.4c-.6,0-1.2.5-1.2,1.2v46.6c0,1-.8,1.9-1.9,1.9h-15.2c-1,0-1.9-.8-1.9-1.9v-113.1c0-1,.8-1.9,1.9-1.9h15.2c1,0,1.9.8,1.9,1.9v46.6c0,.6.5,1.2,1.2,1.2h6.4c.6,0,1.2-.5,1.2-1.2v-46.6c0-1,.8-1.9,1.9-1.9h15.2ZM943.2,163.8v70.1c0,14.6-2.9,23.4-14.6,23.4h-17.5c-11.7,0-14.6-8.8-14.6-23.4v-70.1c0-14.6,2.9-23.4,14.6-23.4h17.5c11.7,0,14.6,8.8,14.6,23.4ZM923,158h-6.4c-.6,0-1.2.5-1.2,1.2v79.5c0,.6.5,1.2,1.2,1.2h6.4c.6,0,1.2-.5,1.2-1.2v-79.5c0-.6-.5-1.2-1.2-1.2ZM996.3,257.3h-17.8c-.3,0-.7-.3-.9-.6-1.9-2.9-1.9-8-1.9-10.8l.3-39.3c0-1-.8-1.9-1.9-1.9h-5c-1,0-1.9.8-1.9,1.9v48.1c0,1.4-1.2,2.6-2.6,2.6h-13.7c-1.4,0-2.6-1.2-2.6-2.6v-111.6c0-1.4,1.2-2.6,2.6-2.6h29.5c11.7,0,14.6,8.8,14.6,23.4v20.2c0,6.7-3.2,9.4-5.7,10.2-.7.3-1.2,1-1.2,1.8s.5,1.5,1.2,1.8c2.4.9,5.7,3.6,5.7,10.2v38c0,2.5,0,7.6,1.8,10.5.3.4,0,.9-.4.9h0ZM976,185.3v-25.4c0-1-.8-1.9-1.9-1.9h-5c-1,0-1.9.8-1.9,1.9v25.4c0,1,.8,1.9,1.9,1.9h5c1,0,1.9-.8,1.9-1.9Z"/>
    </clipPath>
  </defs>
  <g id="Layer_1-2">
    <image class="st14" width="1584" height="396" transform="translate(0 11.8)" xlink:href="LinkedIn_Header-1.png"/>
    <g id="Layer_1-21" data-name="Layer_1-2">
      <g class="st14">
        <g id="Layer_2-2">
          <g id="Layer_1-2-2">
            <g>
              <g class="st14">
                <g class="st14">
                  <g class="st14">
                    <text class="st12" transform="translate(670.1 124.8)"><tspan x="0" y="0">MIC</tspan></text>
                  </g>
                </g>
                <g class="st14">
                  <g class="st14">
                    <text class="st13" transform="translate(720.5 124.8)"><tspan x="0" y="0">H</tspan></text>
                  </g>
                </g>
                <g class="st14">
                  <g class="st14">
                    <text class="st1" transform="translate(739.6 124.8)"><tspan x="0" y="0">AEL</tspan></text>
                  </g>
                </g>
                <g class="st14">
                  <g class="st14">
                    <text class="st6" transform="translate(804.7 124.8)"><tspan x="0" y="0">R</tspan></text>
                  </g>
                </g>
                <g class="st14">
                  <g class="st14">
                    <text class="st0" transform="translate(823.8 124.8)"><tspan x="0" y="0">A</tspan></text>
                  </g>
                </g>
                <g class="st14">
                  <g class="st14">
                    <text class="st8" transform="translate(841.8 124.8)"><tspan x="0" y="0">YMER</tspan></text>
                  </g>
                </g>
              </g>
              <path class="st15" d="M929.9,118.2l297.5.6c11,0,20,9,20,20v129.6c0,11-9,20-20,20"/>
              <path class="st15" d="M356.6,286.6c-11,0-20-9-20-20v-129.6c0-11,9-20,20-20l299.2.6"/>
              <g class="st14">
                <g class="st14">
                  <g class="st14">
                    <text class="st11" transform="translate(374.7 297.9)"><tspan x="0" y="0">E</tspan></text>
                  </g>
                  <g class="st14">
                    <text class="st9" transform="translate(389.8 297.9)"><tspan x="0" y="0">XP</tspan></text>
                  </g>
                  <g class="st14">
                    <text class="st10" transform="translate(421.9 297.9)"><tspan x="0" y="0">L</tspan></text>
                  </g>
                  <g class="st14">
                    <text class="st9" transform="translate(436.2 297.9)"><tspan x="0" y="0">ORING THE FUTURE OF OF HEA</tspan></text>
                  </g>
                  <g class="st14">
                    <text class="st2" transform="translate(803.5 297.9)"><tspan x="0" y="0">L</tspan></text>
                  </g>
                  <g class="st14">
                    <text class="st5" transform="translate(815.4 297.9)"><tspan x="0" y="0">TH, LEADERSHIP &amp; TECHNO</tspan></text>
                  </g>
                  <g class="st14">
                    <text class="st7" transform="translate(1145.8 297.9)"><tspan x="0" y="0">L</tspan></text>
                  </g>
                  <g class="st14">
                    <text class="st9" transform="translate(1160.1 297.9)"><tspan x="0" y="0">O</tspan></text>
                  </g>
                  <g class="st14">
                    <text class="st3" transform="translate(1176.3 297.9)"><tspan x="0" y="0">G</tspan></text>
                  </g>
                  <g class="st14">
                    <text class="st9" transform="translate(1191.7 297.9)"><tspan x="0" y="0">Y</tspan></text>
                  </g>
                </g>
              </g>
            </g>
          </g>
        </g>
      </g>
      <g>
        <path class="st4" d="M1002.6,257.3c-1.3,0-2.3-1-2.3-2.3v-112.2c0-1.3,1-2.3,2.3-2.3h14.3c1.3,0,2.3,1,2.3,2.3v112.2c0,1.3-1,2.3-2.3,2.3h-14.3ZM1066,156.1c0,.3,0,.6-.1.9l-20,80.8c-.3,1,.5,2,1.6,2h16.2c1.3,0,2.3,1,2.3,2.3v12.9c0,1.3-1,2.3-2.3,2.3h-36.2c-1.3,0-2.3-1-2.3-2.3v-13.3c0-.3,0-.6.1-.9l20-80.8c.3-1-.5-2-1.6-2h-16.2c-1.3,0-2.3-1-2.3-2.3v-12.8c0-1.3,1-2.3,2.3-2.3h36.2c1.3,0,2.3,1,2.3,2.3v13.3h0ZM1118.6,163.8v70.1c0,14.6-2.9,23.4-14.6,23.4h-17.5c-11.7,0-14.6-8.8-14.6-23.4v-70.1c0-14.6,2.9-23.4,14.6-23.4h17.5c11.7,0,14.6,8.8,14.6,23.4h0ZM1098,158h-5.5c-.9,0-1.6.7-1.6,1.6v78.6c0,.9.7,1.6,1.6,1.6h5.5c.9,0,1.6-.7,1.6-1.6v-78.6c0-.9-.7-1.6-1.6-1.6h0ZM1126.8,257.3c-1.3,0-2.3-1-2.3-2.3v-112.2c0-1.3,1-2.3,2.3-2.3h15.9c.4,0,.7.3.9.7l9.8,47.7c.2.7.8,1.3,1.6,1.3h0c.9,0,1.6-.7,1.6-1.6v-45.7c0-1.3,1-2.3,2.3-2.3h15.8c1.3,0,2.3,1,2.3,2.3v112.2c0,1.3-1,2.3-2.3,2.3h-15.3c-.4,0-.7-.3-.9-.7l-11.8-53.5c-.2-.7-.8-1.3-1.6-1.3h0c-.9,0-1.6.7-1.6,1.6v51.6c0,1.3-1,2.3-2.3,2.3h-14.3ZM1209,158h-5.5c-.9,0-1.6.7-1.6,1.6v19.6c0,1.6-.1,4.4,2.9,5.8l11.7,5.8c8.9,4.4,13.1,9.6,13.1,21.5v21.6c0,14.6-2.9,23.4-14.6,23.4h-17.5c-11.7,0-14.6-8.8-14.6-23.4v-21.9c0-1.3,1-2.3,2.3-2.3h14.3c1.3,0,2.3,1,2.3,2.3v26.1c0,.9.7,1.6,1.6,1.6h5.5c.9,0,1.6-.7,1.6-1.6v-25.4c0-1.6.1-4.4-2.9-5.8l-11.7-5.8c-8.9-4.4-13.1-9.6-13.1-21.5v-15.8c0-14.6,2.9-23.4,14.6-23.4h17.5c11.7,0,14.6,8.8,14.6,23.4v16.1c0,1.3-1,2.3-2.3,2.3h-14.3c-1.3,0-2.3-1-2.3-2.3v-20.3c0-.9-.7-1.6-1.6-1.6h0ZM358,257.3c-1.3,0-2.3-1-2.3-2.3v-112.2c0-1.3,1-2.3,2.3-2.3h14.3c1.3,0,2.3,1,2.3,2.3v112.2c0,1.3-1,2.3-2.3,2.3h-14.3,0ZM382.9,257.3c-1.3,0-2.3-1-2.3-2.3v-112.2c0-1.3,1-2.3,2.3-2.3h15.9c.4,0,.7.3.9.7l9.8,47.7c.2.7.8,1.3,1.6,1.3h0c.9,0,1.6-.7,1.6-1.6v-45.7c0-1.3,1-2.3,2.3-2.3h15.8c1.3,0,2.3,1,2.3,2.3v112.2c0,1.3-1,2.3-2.3,2.3h-15.3c-.4,0-.7-.3-.9-.7l-11.8-53.5c-.2-.7-.8-1.3-1.6-1.3h0c-.9,0-1.6.7-1.6,1.6v51.6c0,1.3-1,2.3-2.3,2.3h-14.3,0ZM441.3,257.3c-1.3,0-2.3-1-2.3-2.3v-112.2c0-1.3,1-2.3,2.3-2.3h15.9c.4,0,.7.3.9.7l9.8,47.7c.2.7.8,1.3,1.6,1.3h0c.9,0,1.6-.7,1.6-1.6v-45.7c0-1.3,1-2.3,2.3-2.3h15.8c1.3,0,2.3,1,2.3,2.3v112.2c0,1.3-1,2.3-2.3,2.3h-15.3c-.4,0-.7-.3-.9-.7l-11.8-53.5c-.2-.7-.8-1.3-1.6-1.3h0c-.9,0-1.6.7-1.6,1.6v51.6c0,1.3-1,2.3-2.3,2.3h-14.3,0ZM544.1,163.8v70.1c0,14.6-2.9,23.4-14.6,23.4h-17.5c-11.7,0-14.6-8.8-14.6-23.4v-70.1c0-14.6,2.9-23.4,14.6-23.4h17.5c11.7,0,14.6,8.8,14.6,23.4h0ZM523.5,158h-5.5c-.9,0-1.6.7-1.6,1.6v78.6c0,.9.7,1.6,1.6,1.6h5.5c.9,0,1.6-.7,1.6-1.6v-78.6c0-.9-.7-1.6-1.6-1.6h0ZM556.4,257.3c-1.5,0-2.7-1.2-2.8-2.6l-6.3-113.5c0-.6.3-.7.7-.7h17.5c.4,0,.7.1.7.7l5,97.1c0,.8.7,1.5,1.5,1.5h0c.8,0,1.5-.6,1.5-1.5l5-97.1c0-.6.3-.7.7-.7h17.5c.4,0,.7.1.7.7l-6.3,113.5c0,1.5-1.3,2.6-2.8,2.6h-33,0ZM648.1,256.6c0,.6-.3.7-.7.7h-17.5c-.4,0-.7-.1-.7-.7l-1.4-27.8c0-.8-.7-1.5-1.5-1.5h-7.3c-.8,0-1.5.6-1.5,1.5l-1.4,27.8c0,.6-.3.7-.7.7h-17.5c-.4,0-.7-.1-.7-.7l6.4-115.4c0-.6.3-.7.7-.7h36.8c.4,0,.7.1.7.7l6.4,115.4h0ZM620.1,209.8h4.9c.9,0,1.6-.7,1.5-1.6l-2.5-48.8c0-.8-.7-1.5-1.5-1.5h0c-.8,0-1.5.6-1.5,1.5l-2.5,48.8c0,.9.7,1.6,1.5,1.6ZM685.6,140.4c1,0,1.9.8,1.9,1.9v13.7c0,1-.8,1.9-1.9,1.9h-8.6c-.6,0-1.2.5-1.2,1.2v96.3c0,1-.8,1.9-1.9,1.9h-15.2c-1,0-1.9-.8-1.9-1.9v-96.3c0-.6-.5-1.2-1.2-1.2h-8.6c-1,0-1.9-.8-1.9-1.9v-13.7c0-1,.8-1.9,1.9-1.9h38.6s0,0,0,0ZM695.3,257.3c-1,0-1.9-.8-1.9-1.9v-113.1c0-1,.8-1.9,1.9-1.9h15.2c1,0,1.9.8,1.9,1.9v113.1c0,1-.8,1.9-1.9,1.9h-15.2ZM765,163.8v70.1c0,14.6-2.9,23.4-14.6,23.4h-17.5c-11.7,0-14.6-8.8-14.6-23.4v-70.1c0-14.6,2.9-23.4,14.6-23.4h17.5c11.7,0,14.6,8.8,14.6,23.4h0ZM744.8,158h-6.4c-.6,0-1.2.5-1.2,1.2v79.5c0,.6.5,1.2,1.2,1.2h6.4c.6,0,1.2-.5,1.2-1.2v-79.5c0-.6-.5-1.2-1.2-1.2ZM772.7,257.3c-1,0-1.9-.8-1.9-1.9v-113.1c0-1,.8-1.9,1.9-1.9h16.4c.4,0,.7.3.9.7l9.9,48c.1.5.6.9,1.1.9h.8c.6,0,1.2-.5,1.2-1.2v-46.6c0-1,.8-1.9,1.9-1.9h16.7c1,0,1.9.8,1.9,1.9v113.1c0,1-.8,1.9-1.9,1.9h-15.8c-.4,0-.7-.3-.9-.7l-11.9-53.9c-.1-.5-.6-.9-1.1-.9h-.8c-.6,0-1.2.5-1.2,1.2v52.5c0,1-.8,1.9-1.9,1.9h-15.2,0ZM888.7,140.4c1,0,1.9.8,1.9,1.9v113.1c0,1-.8,1.9-1.9,1.9h-15.2c-1,0-1.9-.8-1.9-1.9v-46.6c0-.6-.5-1.2-1.2-1.2h-6.4c-.6,0-1.2.5-1.2,1.2v46.6c0,1-.8,1.9-1.9,1.9h-15.2c-1,0-1.9-.8-1.9-1.9v-113.1c0-1,.8-1.9,1.9-1.9h15.2c1,0,1.9.8,1.9,1.9v46.6c0,.6.5,1.2,1.2,1.2h6.4c.6,0,1.2-.5,1.2-1.2v-46.6c0-1,.8-1.9,1.9-1.9h15.2ZM943.2,163.8v70.1c0,14.6-2.9,23.4-14.6,23.4h-17.5c-11.7,0-14.6-8.8-14.6-23.4v-70.1c0-14.6,2.9-23.4,14.6-23.4h17.5c11.7,0,14.6,8.8,14.6,23.4h0ZM923,158h-6.4c-.6,0-1.2.5-1.2,1.2v79.5c0,.6.5,1.2,1.2,1.2h6.4c.6,0,1.2-.5,1.2-1.2v-79.5c0-.6-.5-1.2-1.2-1.2ZM996.3,257.3h-17.8c-.3,0-.7-.3-.9-.6-1.9-2.9-1.9-8-1.9-10.8l.3-39.3c0-1-.8-1.9-1.9-1.9h-5c-1,0-1.9.8-1.9,1.9v48.1c0,1.4-1.2,2.6-2.6,2.6h-13.7c-1.4,0-2.6-1.2-2.6-2.6v-111.6c0-1.4,1.2-2.6,2.6-2.6h29.5c11.7,0,14.6,8.8,14.6,23.4v20.2c0,6.7-3.2,9.4-5.7,10.2-.7.3-1.2,1-1.2,1.8h0c0,.8.5,1.5,1.2,1.8,2.4.9,5.7,3.6,5.7,10.2v38c0,2.5,0,7.6,1.8,10.5.3.4,0,.9-.4.9h0ZM976,185.3v-25.4c0-1-.8-1.9-1.9-1.9h-5c-1,0-1.9.8-1.9,1.9v25.4c0,1,.8,1.9,1.9,1.9h5c1,0,1.9-.8,1.9-1.9Z"/>
        <g class="st18">
          <g>
            <image class="st14" width="829" height="353" transform="translate(349.1 0) scale(1.1)" xlink:href="LinkedIn_Header-2.png"/>
            <rect class="st17" x="347" y="127.9" width="896.7" height="152"/>
          </g>
        </g>
      </g>
    </g>
  </g>
</svg>