<?xml version="1.0" encoding="UTF-8"?>
<svg id="Layer_1" xmlns="http://www.w3.org/2000/svg" version="1.1" viewBox="0 0 600 337">
  <!-- Generator: Adobe Illustrator 29.5.1, SVG Export Plug-In . SVG Version: 2.1.0 Build 141)  -->
  <defs>
    <style>
      .st0 {
        fill: #003069;
      }
    </style>
  </defs>
  <path class="st0" d="M96.1,253.7C41.9,244.1,0,190.9,0,126.7S41.9,9.3,96.1,0v4.1c-17.8,11.3-52.8,43.3-52.8,120.8s35,109.9,52.8,123.2v5.5h0ZM70.3,290.1s17.2-9.3,25.4-9.3c24,0,31.2,56.3,70,56.3s48-18.5,48-18.5l-2.7-4.8s-12.3,8.9-22.3,8.9c-25,0-41.5-56.3-70.3-56.3s-51.5,20.6-51.5,20.6l3.4,3.1h0ZM232.6,126.7c0,63.9-40.5,116.7-94.4,126.7v-5.5c17.8-13.7,51.1-49.1,51.1-122.9S156.1,16.5,138.3,4.8V0c53.5,9.9,94.4,62.5,94.4,126.7h0ZM244.6,126.9h44.2v2.2c-6.7,0-13.2,1.5-13.2,12.6v96.3c0,10.8,6.5,12.4,13.2,12.4v2.2h-44.2v-2.2c5.3,0,13.4-1.9,13.4-12.6v-96c0-10.7-8.1-12.7-13.4-12.7,0,0,0-2.2,0-2.2ZM363.8,250.4v2.2h-43.8v-2.2c6.7,0,13.1-1.5,13.1-12.4v-29.4c0-4.6-1.7-8.3-4.3-10.2-5.2-3.6-13.6-5.3-19.9-6v-1.2c6.5-.9,15-2.7,19.9-6.4,2.6-1.9,4.3-5.2,4.3-10v-33.4c0-10.8-6.7-12.4-13.4-12.4v-2.2h43.8v2.2c-5.2,0-12.9,1.9-12.9,12.6v96.2c0,10.7,8.1,12.6,13.2,12.6h0s0,0,0,0ZM417.1,250.4v2.2h-49.7v-2.2c5,0,15.1.3,15.1-12.4v-96.3c0-12.2-10.1-12.4-15-12.4v-2.4h32.5v111c0,12.6,11.2,12.6,17,12.6h0s0,0,0,0ZM461.1,163.4c0,34.1-30.4,37.8-42.5,38.4v-1.4c8.1-2.9,21.7-11.4,21.7-36.3s-13.6-33.5-21.7-36.1v-1c14.4.2,42.5,5.7,42.5,36.5ZM260.8,272.7c10.2,0,15.6,3.6,16,11.7h-9.7c-.4-2.4-2.2-3.6-6.3-3.6s-6.6,2.4-6.6,5.1,1,5.2,6.6,5.2,5.9-1.2,6.3-3.7h9.7c-.4,8.1-5.7,11.8-16,11.8s-16.1-4.3-16.1-13.2,4.8-13.1,16.1-13.1ZM323.9,294h-10.9l-1.7,4.6h-10.5l10.6-25.6h14.1l10.6,25.6h-10.5l-1.7-4.6ZM321.5,287.5l-3-7.8-3,7.8h5.9,0ZM393.4,282.8c0,5.7-4,9.8-9.8,9.8h-10.6v6h-9.5v-25.6h20.1c5.8,0,9.8,4.1,9.8,9.8h0s0,0,0,0ZM383.8,282.8c0-1.8-1.2-1.8-2.1-1.8h-8.8v3.5h8.8c1,0,2.1,0,2.1-1.7h0ZM430.5,298.7h-9.5v-25.6h9.5v25.6ZM489.6,281.1h-11v17.6h-9.5v-17.6h-11v-8.1h31.5v8.1h0ZM534.1,294h-10.9l-1.8,4.6h-10.5l10.6-25.6h14.1l10.6,25.6h-10.5l-1.7-4.6h0ZM531.7,287.5l-3-7.8-3,7.8h5.9ZM600,290.6v8.1h-26.4v-25.6h9.5v17.6h16.8Z"/>
</svg>