<?xml version="1.0" ?><svg viewBox="0 0 300 300" xmlns="http://www.w3.org/2000/svg"><defs><style>.a,.f{fill:#fbfeff;}.b,.c{fill:#ff3268;}.c,.f{fill-rule:evenodd;}.d{fill:#2260e5;}.e,.g{fill:none;stroke:#121212;stroke-linecap:round;stroke-width:4px;}.e{stroke-miterlimit:10;}.g{stroke-linejoin:round;}.h{fill:#121212;}</style></defs><title/><path class="a" d="M53.318,181.549H81.491v14.81a173.294,173.294,0,0,1,26.175-11.641v-3.652a11.355,11.355,0,0,1,5.452-21.329h1.818v-3.28a10.9,10.9,0,0,1,.529-19.174,35.326,35.326,0,0,1,19.465-25.719v-9.989h3.635V90.669h2.07V85.23a10.906,10.906,0,1,1,17.668,0v5.435h2.073v10.906h3.635v9.556a35.221,35.221,0,0,1,20.5,26.756,10.9,10.9,0,0,1,.4,17.981v3.869h2.251a11.355,11.355,0,0,1,5.019,21.553v2.255c26.043-11.261,58.53-23.356,65.267-25.845a1.8,1.8,0,0,0,1.172-1.8l-7.73-121.187a1.8,1.8,0,0,0-2.046-1.668c-41.563,5.77-81.278,26.647-81.278,26.647-.578-6.636-2.566-11.9-6.424-15.124C137.429,24.725,66.6,60.527,51.376,68.6a5.257,5.257,0,0,0-2.787,4.828l3.849,108.117Z"/><path class="b" d="M168.322,74.866S207.643,55.288,251.7,47.373l1.123,17.618S217.5,68.45,168.744,92.822Z"/><path class="b" d="M175.63,119.489c45.773-22.016,78.72-27.646,78.72-27.646l-1.124-17.618C209.169,82.14,169.283,105.3,169.283,105.3l.3,8.939A35.186,35.186,0,0,1,175.63,119.489Z"/><path class="b" d="M184.516,137.887a10.952,10.952,0,0,1,4.293,5.475c39.478-17.677,67.253-23.473,67.253-23.473l-1.124-17.618c-29.871,5.367-58.139,18.427-73.258,26.286A34.777,34.777,0,0,1,184.516,137.887Z"/><path class="b" d="M184.914,159.737h2.251a11.374,11.374,0,0,1,11.381,11.343c0,.091-.017.178-.019.269,35.166-14.78,59.731-19.755,59.731-19.755l-1.123-17.618c-28.691,5.155-56.385,17.409-72.221,25.335Z"/><path class="c" d="M149.471,67.948a10.914,10.914,0,0,1,10.155,6.96c6.531,5.978,9.118,15.718,9.118,15.718L168.21,70.7a23.267,23.267,0,0,0-12.059-15.764c-15.427-8.122-45.086,4.754-45.086,4.754l-2.113,19.058s19.365-6.812,33.491-8.218A10.851,10.851,0,0,1,149.471,67.948Z"/><path class="c" d="M158.3,90.669h2.073v10.906h3.635V107.9a26.943,26.943,0,0,1,3.851,5.232c.555.333,1.1.687,1.63,1.049l-.371-13.448s.067-8.37-10.818-14.794Z"/><path class="c" d="M138.565,99.407V90.669h2.07V85.23a10.967,10.967,0,0,1-1.584-3.224c-31.414,2.606-89.075,30.4-89.075,30.4l.68,19.084S108.724,103.628,138.565,99.407Z"/><path class="d" d="M118.523,104.81S88.081,112.479,51,131.616L48.6,73.451A5.256,5.256,0,0,1,51.386,68.6c9.027-4.789,37.474-19.255,64.122-26.166Z"/><path class="c" d="M114.591,137.806c.286-.181.57-.368.874-.523a35.4,35.4,0,0,1,13.541-22.1C96.7,122.908,50.94,146.9,50.94,146.9l.679,19.084S85.279,148.448,114.591,137.806Z"/><path class="b" d="M111.05,152.63c-28.5,10.466-58.76,27.128-58.76,27.128l.064,1.791H81.491v2.788c6.528-3.131,13.682-6.427,20.906-9.515a11.283,11.283,0,0,1,10.721-15.085h1.818v-3.28A10.967,10.967,0,0,1,111.05,152.63Z"/><path class="e" d="M52.372,179.712,48.589,73.432A5.257,5.257,0,0,1,51.376,68.6c15.224-8.077,86.053-43.879,109.769-24.04,3.858,3.228,5.846,8.488,6.424,15.124,0,0,39.715-20.877,81.278-26.647a1.8,1.8,0,0,1,2.046,1.668l7.73,121.187a1.8,1.8,0,0,1-1.172,1.8c-6.254,2.311-34.705,12.9-59.586,23.416"/><path class="f" d="M76.516,75.741a.655.655,0,0,0-.631-.461l-5.967-.014-1.882-5.575a.64.64,0,0,0-.636-.454.655.655,0,0,0-.626.466l-1.762,5.563-6.039.014a.671.671,0,0,0-.395,1.209L63.305,80l-1.854,5.9a.673.673,0,0,0,.635.875.655.655,0,0,0,.385-.127l4.983-3.538,4.933,3.535a.647.647,0,0,0,.778,0,.66.66,0,0,0,.244-.745L71.553,80l4.725-3.512A.66.66,0,0,0,76.516,75.741Z"/><path class="f" d="M78.588,102.38a.654.654,0,0,0-.63-.461l-5.968-.014L70.109,96.33a.642.642,0,0,0-.637-.454.655.655,0,0,0-.626.466l-1.762,5.563-6.039.014a.671.671,0,0,0-.4,1.209l4.727,3.512-1.854,5.9a.673.673,0,0,0,.635.875.655.655,0,0,0,.385-.127l4.983-3.538,4.933,3.535a.647.647,0,0,0,.778,0,.66.66,0,0,0,.244-.745l-1.856-5.9,4.726-3.512A.661.661,0,0,0,78.588,102.38Z"/><path class="f" d="M104,91.594a.656.656,0,0,0-.63-.461L97.4,91.119l-1.882-5.575a.64.64,0,0,0-.636-.454.655.655,0,0,0-.626.466L92.5,91.119l-6.039.014a.671.671,0,0,0-.395,1.209l4.727,3.512-1.854,5.9a.673.673,0,0,0,.635.875.648.648,0,0,0,.385-.127l4.983-3.538L99.87,102.5a.648.648,0,0,0,.778,0,.66.66,0,0,0,.244-.745l-1.856-5.9,4.725-3.512A.66.66,0,0,0,104,91.594Z"/><path class="f" d="M104.5,64.346a.655.655,0,0,0-.631-.461L97.9,63.87,96.022,58.3a.642.642,0,0,0-.636-.454.655.655,0,0,0-.626.466L93,63.87l-6.04.015a.67.67,0,0,0-.394,1.208l4.727,3.512-1.854,5.9a.661.661,0,0,0,.243.745.671.671,0,0,0,.392.131.66.66,0,0,0,.385-.127l4.983-3.538,4.932,3.535a.65.65,0,0,0,.779,0,.661.661,0,0,0,.244-.744l-1.856-5.9,4.725-3.511A.663.663,0,0,0,104.5,64.346Z"/><line class="e" x1="167.569" x2="169.223" y1="59.688" y2="108.414"/><rect class="g" height="62.707" width="80.883" x="109.519" y="204.269"/><path class="g" d="M172.961,196.09c-4.364-3.235-13.218-5.453-23.455-5.453s-19.091,2.218-23.455,5.453H109.519v8.179H190.4V196.09Z"/><polyline class="g" points="114.971 196.09 114.971 175.187 184.949 175.187 184.949 196.09"/><polyline class="g" points="122.242 167.008 122.242 150.65 177.679 150.65 177.679 167.008"/><path class="g" d="M191.311,171.1a4.09,4.09,0,0,1-4.09,4.089H113.154a4.09,4.09,0,1,1,0-8.179h74.067A4.09,4.09,0,0,1,191.311,171.1Z"/><path class="g" d="M184.434,146.379a4.271,4.271,0,0,1-4.27,4.271H118.819a4.271,4.271,0,0,1,0-8.541h61.345A4.27,4.27,0,0,1,184.434,146.379Z"/><rect class="h" height="5.453" width="4.544" x="129.512" y="156.102"/><rect class="h" height="5.453" width="4.544" x="138.6" y="156.102"/><rect class="h" height="5.453" width="4.544" x="147.688" y="156.102"/><rect class="h" height="5.453" width="4.544" x="156.776" y="156.102"/><rect class="h" height="5.453" width="4.544" x="165.864" y="156.102"/><polygon class="h" points="134.056 186.727 129.512 188.163 129.512 180.64 134.056 180.64 134.056 186.727"/><rect class="h" height="8.179" width="4.544" x="120.424" y="180.64"/><polygon class="h" points="143.144 185.415 138.6 186.093 138.6 180.64 143.144 180.64 143.144 185.415"/><rect class="h" height="4.544" width="4.544" x="147.688" y="180.64"/><polygon class="h" points="161.32 186.093 156.776 185.415 156.776 180.64 161.32 180.64 161.32 186.093"/><polygon class="h" points="170.408 188.163 165.864 186.727 165.864 180.64 170.408 180.64 170.408 188.163"/><rect class="h" height="8.179" width="4.544" x="174.952" y="180.64"/><path class="g" d="M122.261,142.109a27.732,27.732,0,0,1,21.563-25.994"/><rect class="g" height="8.782" width="14.541" x="142.236" y="107.333"/><rect class="g" height="9.394" width="8.53" x="145.388" y="97.939"/><rect class="h" height="26.234" width="6.362" x="118.607" y="211.661"/><rect class="h" height="26.234" width="6.362" x="133.148" y="211.661"/><rect class="h" height="26.234" width="6.362" x="146.78" y="211.661"/><rect class="h" height="26.234" width="6.362" x="160.412" y="211.661"/><rect class="h" height="26.234" width="6.362" x="174.952" y="211.661"/><path class="h" d="M124.968,251.03h-6.361v-4.5a3.181,3.181,0,1,1,6.361,0Z"/><path class="h" d="M139.509,251.03h-6.361v-4.5a3.181,3.181,0,1,1,6.361,0Z"/><path class="h" d="M153.141,251.03H146.78v-4.5a3.181,3.181,0,1,1,6.361,0Z"/><path class="h" d="M166.773,251.03h-6.361v-4.5a3.181,3.181,0,1,1,6.361,0Z"/><path class="h" d="M56.092,239.712h-8.18v-15.9a4.09,4.09,0,0,1,8.18,0Z"/><path class="h" d="M40.834,239.712H32.655v-15.9a4.09,4.09,0,0,1,8.179,0Z"/><path class="h" d="M70.632,239.712H62.453v-15.9a4.09,4.09,0,0,1,8.179,0Z"/><path class="h" d="M85.173,239.712H76.994v-15.9a4.09,4.09,0,0,1,8.179,0Z"/><path class="h" d="M99.714,239.712H91.535v-15.9a4.09,4.09,0,0,1,8.179,0Z"/><path class="h" d="M181.314,251.03h-6.362v-4.5a3.181,3.181,0,0,1,6.362,0Z"/><line class="g" x1="107.701" x2="192.22" y1="257.888" y2="257.888"/><circle class="g" cx="149.506" cy="77.851" r="4.638"/><path class="g" d="M156.1,116.115a27.732,27.732,0,0,1,21.563,25.994"/><rect class="g" height="62.707" width="84.519" x="25" y="204.269"/><line class="g" x1="81.538" x2="81.538" y1="245.165" y2="266.976"/><line class="g" x1="54.274" x2="54.274" y1="245.165" y2="266.976"/><line class="g" x1="25" x2="109.519" y1="248.8" y2="248.8"/><line class="g" x1="25" x2="109.519" y1="257.888" y2="257.888"/><line class="g" x1="25" x2="109.519" y1="214.266" y2="214.266"/><rect class="g" height="17.418" width="13.632" x="60.636" y="186.851"/><line class="g" x1="57.909" x2="76.994" y1="195.686" y2="195.686"/><line class="g" x1="149.506" x2="149.506" y1="82.49" y2="97.751"/><path class="h" d="M243.192,239.712h8.179v-15.9a4.09,4.09,0,0,0-8.179,0Z"/><path class="h" d="M256.937,239.712h8.179v-15.9a4.09,4.09,0,0,0-8.179,0Z"/><path class="h" d="M228.651,239.712h8.179v-15.9a4.09,4.09,0,0,0-8.179,0Z"/><path class="h" d="M214.11,239.712h8.179v-15.9a4.09,4.09,0,0,0-8.179,0Z"/><path class="h" d="M199.569,239.712h8.18v-15.9a4.09,4.09,0,0,0-8.18,0Z"/><rect class="g" height="62.707" transform="translate(465.481 471.245) rotate(-180)" width="84.519" x="190.481" y="204.269"/><line class="g" x1="217.859" x2="217.859" y1="245.165" y2="266.976"/><line class="g" x1="246.94" x2="246.94" y1="245.165" y2="266.976"/><line class="g" x1="275" x2="190.481" y1="248.8" y2="248.8"/><line class="g" x1="275" x2="190.481" y1="257.888" y2="257.888"/><line class="g" x1="275" x2="190.481" y1="214.266" y2="214.266"/><rect class="g" height="17.418" transform="translate(463.89 391.12) rotate(-180)" width="13.632" x="225.129" y="186.851"/><line class="g" x1="241.487" x2="222.403" y1="195.686" y2="195.686"/></svg>